<?xml version="1.0" encoding="utf-8"?>
<!-- Generator: Adobe Illustrator 19.0.0, SVG Export Plug-In . SVG Version: 6.00 Build 0)  -->
<svg version="1.1" id="Layer_1" xmlns="http://www.w3.org/2000/svg" xmlns:xlink="http://www.w3.org/1999/xlink" x="0px" y="0px"
	 viewBox="0 0 694 48" style="enable-background:new 0 0 694 48;" xml:space="preserve">
<style type="text/css">
	.st0{fill:#EE2B24;}
</style>
<g id="XMLID_2_">
	<ellipse id="XMLID_19_" class="st0" cx="27.3" cy="24.3" rx="3.3" ry="2.9"/>
	<ellipse id="XMLID_18_" class="st0" cx="67.2" cy="24.3" rx="3.3" ry="2.9"/>
	<ellipse id="XMLID_17_" class="st0" cx="107.1" cy="24.3" rx="3.3" ry="2.9"/>
	<ellipse id="XMLID_16_" class="st0" cx="147" cy="24.3" rx="3.3" ry="2.9"/>
	<ellipse id="XMLID_15_" class="st0" cx="186.9" cy="24.3" rx="3.3" ry="2.9"/>
	<ellipse id="XMLID_14_" class="st0" cx="226.8" cy="24.3" rx="3.3" ry="2.9"/>
	<ellipse id="XMLID_13_" class="st0" cx="266.6" cy="24.3" rx="3.3" ry="2.9"/>
	<ellipse id="XMLID_12_" class="st0" cx="307.5" cy="24.3" rx="3.3" ry="2.9"/>
	<ellipse id="XMLID_11_" class="st0" cx="347.4" cy="24.3" rx="3.3" ry="2.9"/>
	<ellipse id="XMLID_10_" class="st0" cx="387.3" cy="24.3" rx="3.3" ry="2.9"/>
	<ellipse id="XMLID_9_" class="st0" cx="427.1" cy="24.3" rx="3.3" ry="2.9"/>
	<ellipse id="XMLID_8_" class="st0" cx="467" cy="24.3" rx="3.3" ry="2.9"/>
	<ellipse id="XMLID_7_" class="st0" cx="506.9" cy="24.3" rx="3.3" ry="2.9"/>
	<ellipse id="XMLID_6_" class="st0" cx="546.8" cy="24.3" rx="3.3" ry="2.9"/>
	<ellipse id="XMLID_5_" class="st0" cx="586.7" cy="24.3" rx="3.3" ry="2.9"/>
	<ellipse id="XMLID_4_" class="st0" cx="626.6" cy="24.3" rx="3.3" ry="2.9"/>
	<ellipse id="XMLID_3_" class="st0" cx="667.7" cy="24.3" rx="3.3" ry="2.9"/>
</g>
</svg>
