<?xml version="1.0" encoding="utf-8"?>
<!-- Generator: Adobe Illustrator 19.0.0, SVG Export Plug-In . SVG Version: 6.00 Build 0)  -->
<svg version="1.1" id="Layer_1" xmlns="http://www.w3.org/2000/svg" xmlns:xlink="http://www.w3.org/1999/xlink" x="0px" y="0px"
	 viewBox="0 0 229 193" style="enable-background:new 0 0 229 193;" xml:space="preserve">
<style type="text/css">
	.st0{fill:#D5A775;}
	.st1{fill:#EAC088;}
	.st2{opacity:0.3;fill:#EAC088;}
	.st3{opacity:0.2;fill:#D5A775;}
	.st4{fill:#4C261F;}
	.st5{opacity:0.17;}
	.st6{fill:#60342D;}
	.st7{fill:#774539;}
	.st8{opacity:0.41;fill:#C3AAA1;}
</style>
<g>
	<g>
		<path class="st0" d="M31.2,105.1c0.7,4,22.4,37.4,40.5,55.7c2.4,2.4,25.4,9.7,46,9.7c20.6,0,43.1-8,45.2-9.1
			c2.2-1.1,24.9-14.8,39.3-56.3H31.2z"/>
		<path class="st1" d="M32.1,77.4c-0.6,1.6-5.8,5-5.8,6.3c0,1.3,4.1,1.5,4.4,3.3c0.3,1.8-5.1,6.6-4.4,7.8c0.7,1.3,5.3,1,5.8,2.4
			s-3.5,6.8-2.9,7.9c0.6,1.1,6.2,0.6,6.9,1.8c0.7,1.1-2.1,7.9-1.2,9s5.8,0,6.8,1.1c1.1,1.1-0.1,7.7,0.7,8.5c0.8,0.8,7.7-1.8,8.8-0.9
			c1.1,0.9-0.5,8.1,0.8,9c1.4,0.9,6.8-3.7,9.2-2.4c2.3,1.3,2.3,6.9,3.6,7.8c1.2,0.9,5.9-2.9,8.4-1.8c2.5,1.1,1.6,7.2,3.4,7.9
			c1.8,0.8,5.8-4.8,9.6-3.9c3.8,0.9,3,6.9,5.9,7.2c2.9,0.3,4-5.8,7.8-5.7c3.8,0.1,4.4,5.9,6.7,5.7c2.3-0.3,2.8-5.8,7-5.6
			c4.2,0.3,4.8,5.5,6.4,5.6c1.6,0.1,4.5-5.9,7.4-5.8c2.9,0.1,4.7,4.8,7.1,4.9c2.5,0.1,3.4-6.8,5.6-6.8c2.2,0,5.5,4.4,7.3,4.4
			c1.8,0,2.3-6.2,4.7-6.4c2.3-0.3,6.4,3.5,8.4,3.4c1.9-0.1,1.8-8.1,3.3-8.7c1.5-0.6,6.3,2,7.8,1.5c1.5-0.5,0.4-6.8,2.2-7.6
			c1.8-0.8,7.8,2.9,9,2.3c1.2-0.6,0-6.1,1.8-6.7c1.9-0.6,7.3,1.9,8.8,1.1c1.5-0.8-0.7-7.2,0-8.6c0.7-1.4,4.2-0.4,5.6-1.5
			c1.4-1.1-2.6-7.2-1.5-8.2c1.1-1,5.9,1,7,0c1.1-1-4.1-7.3-3.3-8.7c0.8-1.4,4.8-0.4,5.5-1.8c0.7-1.4-3.7-6.7-3.1-7.8
			c0.5-1.1,4.7-0.6,4.7-2.3c0-1.8-5.8-6.1-5.3-6.8c0.4-0.8,4.8-2.2,5-3.5c0.1-1.3-6.9-4.6-6.6-5.5c0.3-0.9,3.4-3.5,3.1-4.3
			c-0.4-1.3-6.6-4.1-7-5.4s1.8-3.8,1.4-4.9c-0.5-1.3-7-3.1-7.4-3.8c-0.4-0.6,0.6-3.8-0.4-4.6c-1-0.9-7.7-2.3-8.5-2.9
			c-0.8-0.6-1.6-4.3-2.3-4.8s-7.3-2-8.2-2.5c-1-0.5-2.7-3.2-3.4-3.7c-0.7-0.5-6.7-0.9-7.4-1.4c-0.7-0.5-4.5-2.5-5.2-3
			c-0.7-0.5-5.8,0.3-6.4,0c-0.7-0.3-5.5-3.5-6.2-3.7c-0.7-0.1-6.4,0.9-7.3,0.8c-0.8-0.1-5.5-2-6.3-2.1c-0.8-0.1-6.2,1.9-7.1,1.8
			c-1-0.1-5.9-1.5-6.6-1.8c-0.7-0.2-5.6,1.8-6.3,1.8c-0.7,0-6.2-1.3-7.1-1.3c-0.8,0-3.9,3.2-4.6,3.2c-0.7,0-7.4-1.4-8.5-1
			c-1.1,0.4-1.8,3.4-2.7,3.7c-1,0.3-6.8-0.6-7.9-0.1c-1.1,0.5-1.6,4.2-2.5,4.4c-0.8,0.3-7.7-0.1-8.6,0.5c-1,0.6-1.4,3.9-2.1,4.5
			c-0.7,0.6-7.4,1.1-8.1,1.5c-0.7,0.4-0.7,5-1.2,5.4c-0.5,0.4-7.2,0.6-8,1.3c-0.8,0.6,0.8,4.4,0.2,4.8c-0.5,0.4-8.2,1.4-8.9,2.9
			c-0.4,0.9,1.9,3.5,1.6,4.2c-0.3,0.6-7.1,3.7-7.5,5c-0.4,1.4,1.9,2.5,1.8,3.5c-0.1,1-6.7,4.7-7,6.3C28.3,74.5,32.3,76.9,32.1,77.4z
			"/>
		<path class="st2" d="M76.2,33.7c0,0,21.9,63.8,24,63.4c2.1-0.4-13.6-67.6-13.6-67.6s-7.2-0.6-7.9-0.1C77.5,30,76.8,33.5,76.2,33.7
			z"/>
		<path class="st2" d="M97.8,26.7c0,0,8.1,62.4,9.2,62.3c1.1-0.1,2.5-64.2,2.5-64.2s-6.3-1.3-7.1-1.3
			C101.7,23.5,99.1,26.1,97.8,26.7z"/>
		<path class="st2" d="M122.3,24.8c0,0,0.4,65.3,1.3,65.7c0.9,0.4,12.3-65.3,12.3-65.3s-5.9-2.1-6.5-2.2
			C128.3,23,123.2,24.8,122.3,24.8z"/>
		<path class="st2" d="M149.2,28.1c0,0-13.9,64.2-12.9,64.8c1,0.7,24.6-61.8,24.6-61.8s-4.9-3.1-5.6-3.2
			C154.5,27.9,149.2,28.1,149.2,28.1z"/>
		<path class="st2" d="M171.6,36.2c0,0-24.2,58.3-23.1,59c1.1,0.7,33.7-51.7,33.7-51.7c-1-1.3-1.6-4.1-2.3-4.8
			C179.1,38,173.9,37.1,171.6,36.2z"/>
		<path class="st2" d="M191,51.1c0,0-34,47.9-33.4,48.7c0.6,0.8,39.4-40.3,39.4-40.3s0.2-0.9,0.7-2.2c0.6-1.3,0.9-1.9,0.5-2.7
			C197.9,53.8,192.6,52,191,51.1z"/>
		<path class="st2" d="M201,69.5c0,0-37.1,36.4-36.8,37.5c0.4,1,38.4-28.5,38.4-28.5s1.2-0.8,2-1.3c0.9-0.5,2.8-1.4,3-2.2
			C207.8,73.7,201.5,70.9,201,69.5z"/>
		<path class="st2" d="M36.1,107c0,0,39.2,29.7,39.2,30.8c0,1.1-33.6-20.7-33.6-20.7s-0.8-0.5-2.2-0.6c-1.4,0-3.7,0.3-4.7-0.6
			C33.9,115.1,36.2,110.4,36.1,107z"/>
		<path class="st2" d="M203.4,87.5c0,0-40.3,32.9-40.1,34.6S201,97.1,201,97.1s0.5-0.8,2.4-0.9c2.3-0.1,3.2-0.4,3.2-1.3
			C206.6,93.2,203.1,89.1,203.4,87.5z"/>
		<path class="st2" d="M197.3,105.8c0,0-30.4,25.1-30.3,26.1c0.1,1,26.2-16.4,26.2-16.4s0.5-0.7,1.6-0.8c1.1-0.1,3.3,0.2,4-0.7
			C200.1,112.5,196.4,107.4,197.3,105.8z"/>
		<path class="st2" d="M32.1,77.4c0,0,38.2,41.7,39.7,41.1C73.2,118,35.6,67,35.4,67.3c-0.2,0.4-2.1,1.9-3.3,2.8
			c-1.2,0.9-3.6,2.3-3.7,3.5C28.3,74.9,30.1,75.3,32.1,77.4z"/>
		<path class="st2" d="M41.1,58.8c0.1,1.1,34.1,42.1,35.3,41.8c1.2-0.4-28.1-48.8-28.1-48.8s-8.8,1.4-8.9,2.9
			C39.4,55.5,41.1,58.8,41.1,58.8z"/>
		<path class="st2" d="M56.2,45.6c0,0,25.8,46,27.5,45.8c1.7-0.2-18.1-52.8-18.1-52.8c-2.7,1-7.1,1-8.1,1.5
			C56.8,40.6,57,43,56.2,45.6z"/>
		<path class="st2" d="M32.1,97.2c0,0,33.1,33.5,34.5,33C68,129.6,31.8,86.4,30.7,87c0,0,0.1,0.8-1.8,3.4c-1.9,2.5-2.9,3.6-2.6,4.5
			C26.8,96.3,31.7,95.6,32.1,97.2z"/>
		<path class="st3" d="M52.6,133.7c0,0,22,27.8,24.4,28.2c2,0.3-12.3-22.9-12.3-22.9s-0.5,0-1.6-4.6c-0.7-3-2.2-3.6-3.7-3.3
			C58,131.3,54.1,133.4,52.6,133.7z"/>
		<path class="st3" d="M76.5,145.2c0,0,14.6,19.6,17.1,20.1c2.8,0.6-2.3-17.1-2.3-17.1s-1.1-0.4-2.2-3.9c-1-3.4-4.2-4.1-7-2.2
			C79.2,144.1,77.6,145.6,76.5,145.2z"/>
		<path class="st3" d="M106.4,148.5c0,0,4,20.6,8.1,20.6c4,0,5.3-20.6,5.3-20.6s-0.9,0-1.7-1.8c-0.8-1.8-2.6-3.8-4.8-3.8
			c-2.1,0.1-3.4,1-4.4,3C107.6,148.6,106.4,148.5,106.4,148.5z"/>
		<path class="st3" d="M134.4,147.6c0,0,2,18.6,4.4,18.8c2.4,0.3,8.5-21.2,8.5-21.2s-1,0.3-3.3-2c-2.1-2-4.1-3.2-5.1-1.7
			C137.6,143.2,136.2,147.7,134.4,147.6z"/>
		<path class="st3" d="M160.6,142.1c0,0-5.2,18.4-2.7,19.3c2.5,0.9,13.4-26.4,13.4-26.4s-1.1,0.1-4.2-0.9c-2.6-0.8-4-1.3-4.4,1
			C161.5,142.1,160.6,142.1,160.6,142.1z"/>
		<path class="st3" d="M182.6,129.7c-0.8,1.2-11.4,21.6-10.5,22.2c0.9,0.6,20.6-27.7,20.6-27.7s-3.8-0.5-5.7-1.1
			c-1.6-0.5-3.5-0.5-3.5,1.9C183.2,129.9,182.6,129.7,182.6,129.7z"/>
	</g>
	<g>
		<g>
			<path class="st4" d="M124.6,14.6c-42.1-3-89.4,39.1-78.3,86.8c2.4,10.4,6.7,22.7,10.4,30.6c1-0.3,3.2-1.2,3.9-1
				c2.5,1,2.9,7.3,4,8c1.2,0.8,6.6-2.7,8.4-1.8c2.5,1.3,1.6,7.1,3.4,7.9c1.8,0.8,5.8-4.9,9.6-3.9c3.8,1,3,6.9,5.9,7.2
				c2.9,0.3,4-5.8,7.8-5.7c3.8,0.1,4.4,6,6.7,5.7c2.3-0.3,2.8-5.8,7-5.6c4.2,0.3,4.8,5.4,6.4,5.6c1.6,0.1,4.5-6,7.4-5.8
				c2.9,0.1,4.7,4.8,7.1,4.9c2.5,0.1,3.4-6.8,5.6-6.8c2.2,0,5.5,4.4,7.3,4.4c1.8,0,2.3-6.2,4.7-6.4c2.3-0.3,6.6,3.5,8.5,3.4
				c1.9-0.1,1.6-8,3.1-8.7c1.5-0.7,6.5,2.1,8,1.5c1.5-0.6,0.2-6.7,2-7.6c0.9-0.4,4.3,0.8,6.2,1.6c5.2-7.6,8.2-18.8,10.3-27.7
				C199.1,62.3,166.7,17.6,124.6,14.6z"/>
			<g class="st5">
				<path class="st4" d="M110.3,74.7c-3.4-2.1-6.7-4.3-10.1-6.4c-1,2.2-1.9,4.5-2.8,6.7c3.6,1.9,7.2,3.7,10.8,5.6
					C108.9,78.7,109.6,76.7,110.3,74.7z"/>
				<path class="st4" d="M96,78.9c-1.3,3.5-2.5,7.1-3.7,10.7c3.5,2.3,7.1,4.5,10.6,6.8c1.4-4.4,2.9-8.8,4.4-13.2
					c-3.6-1.9-7.2-3.8-10.8-5.7C96.4,77.9,96.2,78.4,96,78.9z"/>
				<path class="st4" d="M116.6,34.5c-1.3,2.5-2.6,5.1-3.9,7.6c-1.5,2.9-2.9,5.7-4.3,8.6c3.1,1.4,6.2,2.7,9.4,4
					c1.4-3.5,2.8-6.9,4.2-10.4c1-2.4,2.1-4.8,3.1-7.3c-1.1-0.4-2.3-0.7-3.4-1.1C120,35.5,118.3,35,116.6,34.5z"/>
				<path class="st4" d="M86.2,113c3.2,2.1,6.4,4.3,9.5,6.4c1.5-4.9,3-9.7,4.5-14.6c-3.5-2-7.1-3.9-10.7-5.7
					C88.3,103.7,87.2,108.3,86.2,113z"/>
				<path class="st4" d="M102.1,99c-3.5-2.2-7.1-4.5-10.6-6.7c-0.4,1.4-0.9,2.8-1.3,4.3c3.6,1.8,7.2,3.7,10.8,5.7
					C101.4,101.1,101.8,100,102.1,99z"/>
				<path class="st4" d="M84.9,134.4c-0.6-0.4-1.2-0.8-1.9-1.3c-0.1,1-0.2,2-0.3,3c-0.1,1.3-0.3,2.6-0.4,4c1.2-0.7,2.4-1.1,3.6-0.8
					c1.6,0.4,2.4,1.8,2.9,3.3c0.3-1.1,0.5-2.2,0.8-3c0.2-0.6,0.3-1.2,0.5-1.7C88.4,136.7,86.7,135.6,84.9,134.4z"/>
				<path class="st4" d="M130.6,25.4c1.5-3,3-6.1,4.5-9c-2.6-0.6-5.3-1.1-8-1.4c-0.1,0.2-0.2,0.3-0.3,0.5c-1.4,2.4-2.7,4.8-4,7.2
					C125.5,23.5,128,24.4,130.6,25.4z"/>
				<path class="st4" d="M117.8,32.3c2.8,0.8,5.6,1.7,8.4,2.6c1.1-2.4,2.2-4.8,3.3-7.1c-2.6-0.9-5.2-1.9-7.8-2.9
					C120.4,27.3,119.1,29.8,117.8,32.3z"/>
				<path class="st4" d="M106.2,55.2c-1.7,3.5-3.3,7-4.9,10.6c3.3,2.1,6.6,4.3,9.9,6.4c1.5-4.3,3.1-8.5,4.7-12.8
					C112.7,58,109.5,56.6,106.2,55.2z"/>
				<path class="st4" d="M90.9,135.3c1.3-4.4,2.6-8.8,4-13.2c0-0.1,0-0.1,0.1-0.2c-0.4-0.3-0.8-0.6-1.2-0.8
					c-2.7-1.8-5.4-3.7-8.1-5.5c-0.2,0.8-0.3,1.7-0.5,2.5c-0.7,4-1.3,8.1-1.8,12.2c1.5,1,2.9,2,4.4,3C88.8,134,89.9,134.6,90.9,135.3
					z"/>
				<path class="st4" d="M81.6,92.2c1,0.5,2,1,3,1.4c0.5-1.7,1-3.3,1.5-5c-2.5-1.6-5-3.3-7.5-4.9c-1.4-0.9-2.8-1.9-4.2-2.8
					c-0.1,0.2-0.1,0.3-0.2,0.5c-0.7,2.1-1.4,4.3-2.1,6.4C75.2,89.3,78.4,90.7,81.6,92.2z"/>
				<path class="st4" d="M92.2,67.8c0.4-1.3,0.8-2.6,1.2-3.9c-3.4-2.2-6.7-4.4-10.1-6.6c-1.2,2.8-2.4,5.7-3.5,8.6
					c3.7,1.9,7.4,3.8,11.1,5.7C91.4,70.4,91.8,69.1,92.2,67.8z"/>
				<path class="st4" d="M87.8,47.3c-1.1,2.5-2.2,5.1-3.3,7.6c3.3,2.1,6.6,4.2,9.9,6.3c1.1-3.3,2.1-6.6,3.2-9.9
					C94.3,50,91.1,48.6,87.8,47.3z"/>
				<path class="st4" d="M97,26.8c3.1,0.7,6.1,1.5,9.2,2.3c0.5-1.2,1-2.3,1.6-3.5c0.8-1.7,1.6-3.4,2.5-5.1c-2.8-1.1-5.5-2.2-8.3-3.3
					c-1,2-2,3.9-3.1,5.8C98.2,24.3,97.6,25.5,97,26.8z"/>
				<path class="st4" d="M71.3,90.3c-1.1,3.5-2.1,7-3.1,10.5c3.8,2.7,7.6,5.3,11.5,7.9c0.2-0.6,0.4-1.2,0.6-1.8
					c1.2-3.5,2.4-7.1,3.5-10.7c-2.2-1.1-4.3-2.1-6.5-3.2C75.3,92.1,73.3,91.2,71.3,90.3z"/>
				<path class="st4" d="M79,68.2c-1.3,3.4-2.6,6.7-3.8,10.1c3.9,2.6,7.7,5.1,11.6,7.6c1.2-3.9,2.3-7.9,3.5-11.8
					C86.6,72.2,82.8,70.2,79,68.2C79.1,68.3,79,68.2,79,68.2z"/>
				<path class="st4" d="M90.2,41.9c0.2,0.1,0.5,0.2,0.7,0.3c2.8,1.4,5.6,2.8,8.4,4.2c1.8-5.1,3.7-10.1,5.8-15.1
					c-3.1-0.8-6.2-1.6-9.3-2.3C93.9,33.3,92,37.7,90.2,41.9z"/>
				<path class="st4" d="M109.9,17.6c0.5,0.2,1,0.4,1.5,0.6c0.6-1.1,1.2-2.2,1.8-3.3c-2.4,0.3-4.8,0.7-7.2,1.2
					C107.3,16.6,108.6,17.1,109.9,17.6z"/>
				<path class="st4" d="M64.1,119.5c-0.2,2.7-0.2,5.4,0.2,8c0.3,1.5,1.2,4.3,3,4.1c1.6-0.2,3-2.6,3.8-3.9c0.4-0.7,0.8-1.3,1.2-2
					C69.6,123.6,66.9,121.6,64.1,119.5z"/>
				<path class="st4" d="M78.8,111c-3.8-2.5-7.5-5.1-11.3-7.6c0,0.1,0,0.2-0.1,0.2c-1,4-2.3,8.5-2.9,12.9c3,2.3,6.1,4.6,9.1,6.8
					C75.7,119.5,77.3,115.2,78.8,111z"/>
				<path class="st4" d="M98.5,48.9c-3.1-1.5-6.2-3-9.3-4.6c-0.1,0.2-0.2,0.5-0.3,0.7c3.2,1.3,6.4,2.7,9.6,4
					C98.4,49,98.4,48.9,98.5,48.9z"/>
				<path class="st4" d="M65.9,38.6c-0.9,1-1.9,1.9-2.8,2.9c2.5,1.4,5,3,7.5,4.5c0.5,0.3,1,0.7,1.6,1c0.7-1.8,1.4-3.5,2.1-5.2
					C71.4,40.8,68.7,39.7,65.9,38.6z"/>
				<path class="st4" d="M60.7,82.6c0.9-3,1.8-6,2.7-9.1c-2.8-1.9-5.5-3.8-8.3-5.7c-0.6,3.8-1,7.6-1.4,11.4
					C56,80.4,58.4,81.5,60.7,82.6z"/>
				<path class="st4" d="M66.9,62.2c-3.3-1.6-6.7-3.1-10-4.6c-0.3,1.5-0.6,3.1-0.9,4.6c-0.2,0.9-0.3,1.9-0.5,2.8
					c2.9,2,5.8,3.9,8.7,5.9C65,68,65.9,65.1,66.9,62.2z"/>
				<path class="st4" d="M67.6,59.9c1.1-3.5,2.3-6.9,3.6-10.4c-1.7-1.1-3.5-2.2-5.3-3.3c-1.5-0.9-3-1.8-4.6-2.7
					c-0.5,0.6-0.9,1.1-1.4,1.7c-1,3.3-1.9,6.6-2.6,9.9C60.8,56.6,64.2,58.2,67.6,59.9z"/>
				<path class="st4" d="M59.1,88c0.3-1,0.6-2,0.9-3c-2.2-1-4.4-2.1-6.6-3.1c-0.2,2.5-0.4,5-0.6,7.5c1.6,1.3,3.3,2.6,5,3.8
					C58.2,91.5,58.6,89.7,59.1,88z"/>
				<path class="st4" d="M79.1,30.9c0.8-1.6,1.6-3.2,2.4-4.7c0,0-0.1,0-0.1,0c-3.2,2-6.3,4.2-9.3,6.6c1.6,0.8,3.3,1.6,4.9,2.4
					C77.7,33.8,78.4,32.3,79.1,30.9z"/>
				<path class="st4" d="M56.2,100.4c0.3-1.5,0.6-2.9,0.9-4.4c-1.5-1.2-3.1-2.4-4.6-3.6c0,0.1,0,0.1,0,0.2
					c-0.2,4.3-1.2,9.3-0.9,13.9c0.8,0.6,1.5,1.2,2.3,1.8C55,105.8,55.7,103,56.2,100.4z"/>
				<path class="st4" d="M75.2,39.5c0.3-0.7,0.6-1.3,0.8-2c-2-1-4-2-6-2.9c-0.7,0.7-1.5,1.3-2.2,2C70.3,37.6,72.7,38.6,75.2,39.5z"
					/>
				<path class="st4" d="M174,67.8c-0.4,0.9-0.8,1.7-1.2,2.6c5.1,1.3,10.2,2.6,15.3,4.1c0.5-0.9,1-1.8,1.5-2.7
					c-1.2-4.7-2.8-9.3-4.9-13.8c-1.7-0.6-3.4-1.2-5.1-1.8C177.6,60,175.8,63.9,174,67.8z"/>
				<path class="st4" d="M168.1,80.4c-2.7,6-5.4,12-8.1,18c-0.5,1.2-1,2.3-1.6,3.5c4.2,2.1,8.5,4.1,12.8,5.7c3.5-7.4,7-14.7,10.7-22
					c0.1-0.2,0.2-0.4,0.3-0.7c-1.5-0.5-2.9-0.9-4.4-1.3C174.7,82.6,171.4,81.5,168.1,80.4z"/>
				<path class="st4" d="M180.6,53.8c0.8,0.3,1.6,0.6,2.4,0.8c-0.5-0.9-1-1.8-1.5-2.7C181.2,52.6,180.9,53.2,180.6,53.8z"/>
				<path class="st4" d="M156.8,105.9c-2.6,6.2-5.2,12.5-7.2,19.1c3.2,1.9,7,3.5,10.4,5.5c3.5-6.6,6.8-13.4,10-20.1
					C165.5,109.1,161.1,107.6,156.8,105.9z"/>
				<path class="st4" d="M152.5,134.3c-1.6-0.9-3.2-1.7-4.8-2.6c-0.9,3.8-1.6,7.5-1.9,11.3c0.6,0.4,1.1,0.7,1.5,0.7
					c1.8,0,2.3-6.9,4.7-7.2c1.1-0.1,2.5,0.7,3.9,1.6c0.3-0.5,0.6-1.1,0.9-1.6C155.3,135.8,153.9,135,152.5,134.3z"/>
				<path class="st4" d="M183.6,82.6c1.1-2,2.1-4,3.2-6c-5-1.4-10.1-2.7-15.1-4c-0.8,1.8-1.7,3.6-2.5,5.4c3.5,1.2,7,2.3,10.5,3.4
					C181,81.8,182.3,82.2,183.6,82.6z"/>
				<path class="st4" d="M157.9,134.3c0.2-0.4,0.4-0.8,0.6-1.2c0-0.1,0.1-0.1,0.1-0.2c-1.3-0.7-2.5-1.3-3.7-1.9
					c-2.1-1.1-4.2-2.3-6.2-3.5c-0.2,0.5-0.3,1.1-0.4,1.6c1.9,1,3.9,2.1,5.8,3.1C155.4,133,156.6,133.6,157.9,134.3z"/>
				<path class="st4" d="M155.2,47.3c-0.8,1.7-1.6,3.3-2.4,5c-1.9,3.9-3.8,7.9-5.6,11.9c4.6,1.2,9.2,2.3,13.9,3.4
					c0.7-1.5,1.4-3.1,2.1-4.6c1.7-3.7,3.5-7.3,5.4-10.9C164.1,50.5,159.6,48.9,155.2,47.3z"/>
				<path class="st4" d="M127.6,117.5c3.8,2.2,7.5,4.4,11.3,6.5c0.2-0.7,0.5-1.3,0.7-2c-3.8-2.3-7.6-4.6-11.4-7
					C128,115.8,127.8,116.7,127.6,117.5z"/>
				<path class="st4" d="M160,69.8c-4.6-1.1-9.3-2.2-13.9-3.4c-0.4,0.8-0.7,1.6-1.1,2.4c4.4,1.8,8.7,3.5,13.1,5.2
					C158.8,72.6,159.4,71.2,160,69.8z"/>
				<path class="st4" d="M134.7,93.8c4.3,2,8.7,4,13.1,5.8c0.1-0.2,0.2-0.4,0.2-0.7c-4.2-2.5-8.4-5-12.4-7.7
					C135.3,92.1,135,93,134.7,93.8z"/>
				<path class="st4" d="M143.9,71.3c-2.6,5.8-5.1,11.7-7.4,17.6c4.1,2.7,8.2,5.3,12.4,7.7c2.6-6.8,5.3-13.5,8.2-20.2
					C152.7,74.8,148.3,73.1,143.9,71.3z"/>
				<path class="st4" d="M133.8,96.2c-1.9,5.3-3.5,10.7-5,16.2c3.9,2.4,7.8,4.8,11.7,7.1c2.1-5.9,4.2-11.7,6.4-17.5
					c-0.2-0.1-0.4-0.1-0.5-0.2C142.2,100,138,98.2,133.8,96.2z"/>
				<path class="st4" d="M173.4,40.6c-3-3.6-6.4-6.9-10-9.9c-0.9,1.8-1.8,3.5-2.7,5.3C165,37.5,169.2,39.1,173.4,40.6z"/>
				<path class="st4" d="M156.2,45.1c1.5,0.5,3.1,1.1,4.6,1.6c3,1.1,5.9,2.1,8.9,3.2c1.2-2.2,2.4-4.5,3.7-6.7
					c-4.6-1.7-9.2-3.4-13.8-5C158.4,40.5,157.3,42.8,156.2,45.1z"/>
				<path class="st4" d="M127,120.1c-0.6,3-1.2,5.9-1.7,8.9c-0.6,3.5-1.1,7.1-1.5,10.6c0.7,0.5,1.4,1.1,2.2,1.6
					c0.4-0.2,0.9-0.4,1.3-0.4c1.8,0.1,3.1,2.1,4.5,3.7c1.2-3.4,2.3-6.9,3.5-10.3c0.9-2.6,1.9-5.3,2.8-7.9c-0.3-0.2-0.7-0.4-1-0.6
					C133.7,124,130.3,122,127,120.1z"/>
				<path class="st4" d="M111.4,141.7c0.7-2.1,1.3-4.3,2-6.4c-3.2-2.3-6.3-4.6-9.5-6.9c-0.1,0.6-0.1,1.2-0.2,1.8
					c-0.4,4.3-0.6,8.5-0.7,12.8c1.7,1,3.4,2.1,5,3.1C109,144.6,109.8,142.6,111.4,141.7z"/>
				<path class="st4" d="M104.3,125.4c3.3,2.4,6.6,4.8,9.9,7.2c0.5-1.6,1-3.2,1.6-4.7c1.4-3.9,2.8-7.9,4.2-11.8
					c-4.2-2.4-8.3-4.8-12.5-7.2C106.2,114.3,105.1,119.9,104.3,125.4z"/>
				<path class="st4" d="M117,79c-0.6,1.7-1.2,3.4-1.9,5.2c4.5,2.3,9,4.6,13.6,6.8c0.4-1.1,0.8-2.3,1.2-3.4c-1.7-1.1-3.3-2.2-5-3.3
					C122.3,82.5,119.6,80.8,117,79z"/>
				<path class="st4" d="M109,103.2c-0.3,1-0.5,1.9-0.8,2.9c1.2,0.7,2.3,1.3,3.5,2c3.1,1.8,6.1,3.6,9.2,5.4c0.3-0.8,0.6-1.6,0.9-2.5
					C117.5,108.5,113.2,105.9,109,103.2z"/>
				<path class="st4" d="M125.4,57.6c0.9,0.3,1.8,0.6,2.6,0.9c3.8,1.3,7.7,2.5,11.6,3.6c0.2-0.4,0.3-0.8,0.5-1.2
					c2.3-5.5,4.8-11,7.4-16.4c-4.8-1.7-9.5-3.3-14.3-4.9C130.5,45.7,127.9,51.6,125.4,57.6z"/>
				<path class="st4" d="M123.3,62.6c-1.9,4.6-3.7,9.3-5.4,13.9c3.6,2.4,7.2,4.8,10.8,7.1c0.7,0.5,1.4,0.9,2.1,1.4
					c2-5.6,4.1-11.1,6.3-16.6C132.5,66.6,127.9,64.6,123.3,62.6z"/>
				<path class="st4" d="M134.2,37.4c4.8,1.6,9.6,3.2,14.4,4.9c1.1-2.2,2.2-4.5,3.4-6.7c-4.9-1.7-9.8-3.4-14.6-5.1
					C136.3,32.8,135.3,35.1,134.2,37.4z"/>
				<path class="st4" d="M153.2,33.3c0.6-1.1,1.2-2.2,1.8-3.3c0.7-1.3,1.4-2.6,2.1-4c-4.4-2.9-9.1-5.4-14.1-7.3
					c-1.4,2.8-2.8,5.5-4.1,8.3c-0.2,0.4-0.3,0.7-0.5,1.1C143.4,29.9,148.3,31.6,153.2,33.3z"/>
				<path class="st4" d="M138.7,64.4c-4.8-1.3-9.6-2.8-14.3-4.5c0,0.1-0.1,0.1-0.1,0.2c4.6,1.9,9.2,3.9,13.7,5.8
					C138.3,65.4,138.5,64.9,138.7,64.4z"/>
				<path class="st4" d="M114.3,86.7c-1,2.8-1.9,5.6-2.8,8.4c-0.6,1.8-1.2,3.7-1.7,5.6c2.4,1.5,4.9,3.1,7.3,4.6
					c1.8,1.1,3.7,2.3,5.5,3.4c1.7-5.1,3.5-10.1,5.2-15.2C123.3,91.2,118.8,89,114.3,86.7z"/>
				<path class="st4" d="M86.5,44c0.1-0.3,0.3-0.6,0.4-0.9c-1.1-0.6-2.2-1.1-3.3-1.7c-1.8-0.9-3.5-1.8-5.3-2.7
					c-0.3,0.6-0.5,1.2-0.7,1.7C80.5,41.6,83.5,42.8,86.5,44z"/>
				<path class="st4" d="M82.3,53.5c1-2.4,2.1-4.8,3.2-7.2c-2.9-1.2-5.9-2.4-8.9-3.6c-0.8,1.9-1.5,3.8-2.2,5.7
					C77,50.2,79.6,51.9,82.3,53.5z"/>
				<path class="st4" d="M69.3,63.4c-0.6,1.7-1.1,3.5-1.7,5.2c-0.4,1.3-0.8,2.6-1.2,3.8c2.2,1.5,4.4,3,6.7,4.5
					c1.2-3.3,2.4-6.6,3.7-9.8C74.2,65.8,71.7,64.6,69.3,63.4z"/>
				<path class="st4" d="M103.2,43.2c-0.5,1.5-1.1,2.9-1.6,4.4c1.5,0.7,3,1.4,4.5,2.1c0.8-1.5,1.5-3.1,2.3-4.6
					c1.9-3.7,3.7-7.5,5.6-11.3c-2.1-0.6-4.3-1.2-6.4-1.8C106,35.7,104.6,39.4,103.2,43.2z"/>
				<path class="st4" d="M62.9,83.6c2.3,1.1,4.6,2.1,6.8,3.2c0.8-2.4,1.6-4.8,2.4-7.3c-2.2-1.5-4.4-3-6.6-4.5
					C64.6,77.9,63.7,80.7,62.9,83.6z"/>
				<path class="st4" d="M89.4,90.9c-0.3-0.2-0.7-0.4-1-0.6c-0.5,1.5-0.9,3.1-1.4,4.6c0.3,0.2,0.7,0.3,1,0.5
					C88.5,93.9,88.9,92.4,89.4,90.9z"/>
				<path class="st4" d="M115.2,31.5c1.3-2.6,2.6-5.1,4-7.6c-2.2-0.8-4.4-1.7-6.6-2.5c-1.4,2.7-2.7,5.5-3.9,8.3
					C110.8,30.3,113,30.9,115.2,31.5z"/>
				<path class="st4" d="M81.9,110.1c0.7,0.5,1.4,0.9,2.1,1.4c1-4.6,2.1-9.1,3.4-13.6c-0.4-0.2-0.7-0.4-1.1-0.6
					C84.8,101.6,83.4,105.9,81.9,110.1z"/>
				<path class="st4" d="M62.2,86.1c-0.8,2.9-1.6,5.8-2.2,8.8c2,1.5,4,2.9,6,4.4c0.9-3.4,1.9-6.7,3-10
					C66.7,88.1,64.4,87.1,62.2,86.1z"/>
				<path class="st4" d="M74.5,127.2c-0.2,0.4-0.4,0.8-0.7,1.1c-1.1,1.9-2.5,4.1-4.5,5.2c-5.1,2.9-7.5-4.2-7.7-7.9
					c-0.2-2.6,0-5.2,0.3-7.8c-2.4-1.8-4.7-3.7-7.1-5.5c-0.5,0.8-1.1,1.6-1.7,2.4c-0.5,0.6-1.6,0.4-2-0.3c-1-2-1.6-4.2-1.8-6.5
					c-0.5-0.4-1.1-0.9-1.6-1.3c2.5,8.2,6.2,15.4,10.9,21.6c1-0.3,1.9-0.5,2.5-0.1c1.4,0.9,2,3.6,2.5,5.8c0.9,0.9,1.9,1.9,2.9,2.7
					c1.9-0.8,4.8-2.7,6.5-1.8c2.5,1.3,1.6,8,3.4,8.9c0.8,0.4,2-0.6,3.4-1.7c0-1.1,0.1-2.2,0.1-3.4c0.2-2.4,0.4-4.7,0.7-7.1
					C78.6,130.1,76.5,128.6,74.5,127.2z"/>
				<path class="st4" d="M87.9,40.8c0.5-1,0.9-2,1.4-3.1c1.4-3.1,2.7-6.1,4.2-9.2c-3.1-0.7-6.2-1.3-9.3-1.9
					c-1.7,3.2-3.3,6.4-4.8,9.7C82.2,37.8,85.1,39.3,87.9,40.8z"/>
				<path class="st4" d="M85.4,24.3c3.1,0.6,6.1,1.2,9.1,1.9c1.2-2.6,2.5-5.2,3.8-7.8c0.1-0.1,0.1-0.2,0.2-0.3
					c-4.4,1.4-8.6,3.3-12.7,5.5C85.7,23.9,85.6,24.1,85.4,24.3z"/>
				<path class="st4" d="M62.3,114.9c0.7-4.4,1.9-8.8,3-13c-2-1.4-3.9-2.8-5.9-4.2c-0.8,4.1-1.6,8.5-3.4,12.3c0.7,0.5,1.3,1,2,1.6
					C59.4,112.7,60.8,113.8,62.3,114.9z"/>
				<path class="st4" d="M95.4,74c0.9-2.3,1.9-4.6,2.8-6.9c-0.5-0.4-1.1-0.7-1.6-1.1c-0.3-0.2-0.6-0.4-0.9-0.6
					c-0.7,2.3-1.4,4.7-2.1,7c-0.1,0.2-0.1,0.4-0.2,0.5C94.1,73.3,94.7,73.6,95.4,74z"/>
				<path class="st4" d="M100.2,52.6c-0.1,0-0.2-0.1-0.3-0.1c-1.2,3.4-2.3,6.8-3.4,10.2c0.9,0.6,1.9,1.2,2.8,1.8
					c1.5-3.5,3-6.9,4.6-10.3C102.7,53.6,101.5,53.1,100.2,52.6z"/>
				<path class="st4" d="M82.3,119.9c0.3-1.9,0.7-3.8,1.1-5.7c-0.8-0.5-1.6-1.1-2.4-1.6c-0.8,2.1-1.6,4.2-2.5,6.3
					c-0.9,2.1-1.8,4.1-2.8,6.1c1.8,1.3,3.5,2.5,5.3,3.8C81.4,125.7,81.8,122.8,82.3,119.9z"/>
				<path class="st4" d="M120.4,21.6c1-1.8,2-3.7,3.1-5.5c0.3-0.5,0.6-1,0.9-1.5c-2.7-0.2-5.5-0.2-8.2,0c-0.8,1.5-1.7,3-2.4,4.5
					C116,20,118.2,20.8,120.4,21.6z"/>
				<path class="st4" d="M89.2,87.5c0.3,0.2,0.7,0.5,1,0.7c1.3-4,2.7-7.9,4.2-11.9c-0.6-0.3-1.2-0.6-1.8-0.9
					C91.6,79.4,90.4,83.5,89.2,87.5z"/>
				<path class="st4" d="M50,93.7c0.1-1.1,0.2-2.1,0.2-3.2c-1.9-1.5-3.7-3.1-5.6-4.7c-0.1,5.1,0.4,10.3,1.6,15.5
					c0.1,0.3,0.2,0.6,0.2,1c0.9,0.7,1.8,1.4,2.7,2.2C49.2,100.9,49.7,97.2,50,93.7z"/>
				<path class="st4" d="M55.1,54c0.2-1,0.5-2,0.7-2.9c-0.5,0.8-1.1,1.7-1.6,2.5C54.5,53.8,54.8,53.9,55.1,54z"/>
				<path class="st4" d="M70,61c2.5,1.2,5.1,2.5,7.6,3.8c1.2-2.9,2.4-5.9,3.6-8.8c-2.6-1.7-5.2-3.4-7.8-5C72.3,54.3,71.1,57.7,70,61
					z"/>
				<path class="st4" d="M53.2,63.5c0.4-2.3,0.8-4.7,1.3-6.9c-0.5-0.2-1.1-0.5-1.6-0.7c-1,1.8-1.9,3.7-2.8,5.6
					C51.2,62.1,52.2,62.8,53.2,63.5z"/>
				<path class="st4" d="M51.3,78.1c0.4-3.9,0.9-7.9,1.5-11.8c-1.2-0.8-2.4-1.6-3.6-2.5c-1.5,3.7-2.6,7.5-3.4,11.5
					C47.6,76.2,49.4,77.1,51.3,78.1z"/>
				<path class="st4" d="M46.4,84.1c1.3,1.1,2.7,2.2,4,3.3c0.2-2.2,0.4-4.5,0.6-6.7c-1.5-0.7-2.9-1.4-4.4-2.2
					c-0.4-0.2-0.9-0.5-1.3-0.7c-0.2,1.6-0.4,3.2-0.5,4.8C45.3,83.2,45.9,83.7,46.4,84.1z"/>
				<path class="st4" d="M183.7,114c-0.5,1.9-1.1,3.8-1.6,5.7c1.1-1.7,2.1-3.5,3.1-5.4C184.7,114.2,184.2,114.1,183.7,114z"/>
				<path class="st4" d="M186.2,111.9c0.1,0,0.1,0,0.2,0.1c1.5-3.4,2.7-6.9,3.6-10.6c0.7-3,1.1-6,1.4-9c-2.6,6.3-4.9,12.7-6.9,19.2
					C185,111.7,185.6,111.8,186.2,111.9z"/>
				<path class="st4" d="M152.6,101.6c-0.8-0.5-1.7-0.9-2.5-1.4c0,0.1-0.1,0.2-0.1,0.4c1,0.4,1.9,0.8,2.9,1.2
					C152.8,101.7,152.7,101.6,152.6,101.6z"/>
				<path class="st4" d="M169.2,72c-2.3-0.5-4.5-1.1-6.8-1.6c-0.7,1.5-1.3,3-2,4.5c2.1,0.8,4.3,1.6,6.4,2.3
					C167.6,75.4,168.4,73.7,169.2,72z"/>
				<path class="st4" d="M170.8,53c-2.6,5-5.1,10-7.4,15.2c1.6,0.4,3.1,0.7,4.7,1.1c0.7,0.2,1.4,0.3,2.2,0.5c0.5-1.1,1-2.2,1.5-3.2
					c1.8-3.7,3.5-7.5,5.3-11.3C175,54.5,172.9,53.7,170.8,53z"/>
				<path class="st4" d="M172,50.7c2.1,0.7,4.1,1.5,6.2,2.2c0.6-1.2,1.1-2.3,1.7-3.5c-1.1-1.7-2.3-3.4-3.5-5.1
					c-0.3-0.1-0.5-0.2-0.8-0.3C174.4,46.3,173.2,48.5,172,50.7z"/>
				<path class="st4" d="M146.8,109.2c-1.4,3.9-2.8,7.7-4.2,11.6c1.6,1,3.2,2,4.8,3c2-6.4,4.4-12.6,7-18.7c-1.8-0.7-3.6-1.4-5.3-2.1
					C148.3,105,147.5,107.1,146.8,109.2z"/>
				<path class="st4" d="M140.2,127.6c-1.9,5.3-3.7,10.5-5.4,15.8c-0.3,0.9-0.6,1.9-0.9,2.9c0.2,0.1,0.4,0.1,0.5,0.1
					c2.5,0.1,3.4-7.6,5.6-7.6c1,0,2.3,1.1,3.5,2.2c0.4-3.5,1.1-7.1,2-10.5C143.7,129.5,142,128.5,140.2,127.6z"/>
				<path class="st4" d="M165.7,79.5c-2.1-0.7-4.3-1.5-6.4-2.3c-2.9,6.8-5.7,13.7-8.3,20.6c1.7,1,3.5,2,5.3,2.9
					c0.5-1.1,1-2.2,1.4-3.3C160.4,91.5,163,85.5,165.7,79.5z"/>
				<path class="st4" d="M141.7,123.3c-0.2,0.6-0.4,1.3-0.7,1.9c1.7,0.9,3.4,1.9,5.2,2.8c0.2-0.6,0.3-1.1,0.5-1.7
					C145,125.3,143.4,124.3,141.7,123.3z"/>
				<path class="st4" d="M160.3,135.3c0.6,0.2,1.1,0.5,1.7,0.7c0.1-0.3,0.1-0.7,0.2-1c-0.4-0.3-0.8-0.6-1.3-0.8
					C160.7,134.6,160.5,135,160.3,135.3z"/>
				<path class="st4" d="M190.7,77.7c-0.4-0.1-0.9-0.3-1.3-0.4c-1.1,2-2.2,4-3.3,6c1.8,0.5,3.5,1.1,5.3,1.6
					C191.3,82.5,191.1,80.1,190.7,77.7z"/>
				<path class="st4" d="M184.9,85.7c-1.3,2.5-2.6,5.1-3.9,7.7c-2.5,5-4.8,10.1-7.2,15.1c2.7,0.9,5.4,1.8,8.1,2.5
					c2.4-7.9,5.2-15.7,8.5-23.3c0-0.1,0.1-0.1,0.1-0.2C188.7,86.9,186.8,86.3,184.9,85.7z"/>
				<path class="st4" d="M172.6,111.2c-1.1,2.2-2.1,4.5-3.2,6.7c-2.3,4.7-4.7,9.3-7.2,14c0.2,0.1,0.4,0.2,0.6,0.4
					c0.2-0.8,0.5-1.4,0.8-1.6c1.5-0.7,6.3,2.3,7.8,1.7c1.5-0.6,0.4-7.6,2.2-8.5c0.9-0.4,2.8,0.4,4.7,1.2c0.9-3.9,1.9-7.8,3-11.6
					C178.4,112.8,175.5,112,172.6,111.2z"/>
				<path class="st4" d="M159,137.6c-0.4,0.6-0.7,1.3-1,1.9c0.9,0.5,1.7,0.9,2.3,0.9c0.5,0,0.9-0.8,1.2-1.8
					C160.6,138.3,159.8,137.9,159,137.6z"/>
				<path class="st4" d="M121.4,119.8c-1.7,4.8-3.6,9.6-5.1,14.4c1.7,1.3,3.4,2.5,5.2,3.8c0.3-2.6,0.6-5.2,1.1-7.7
					c0.6-3.9,1.4-7.7,2.2-11.4c-0.8-0.5-1.7-1-2.5-1.4C122,118.2,121.7,119,121.4,119.8z"/>
				<path class="st4" d="M142.1,62.9c0.9,0.2,1.7,0.5,2.6,0.7c1.6-3.5,3.2-6.9,4.8-10.3c1.1-2.3,2.1-4.5,3.2-6.8
					c-0.9-0.3-1.9-0.7-2.8-1C147.2,51.2,144.6,57,142.1,62.9z"/>
				<path class="st4" d="M131,92c0.5,0.2,1,0.5,1.5,0.7c0.3-0.9,0.7-1.9,1-2.8c-0.5-0.3-1-0.6-1.5-1C131.7,90,131.3,91,131,92z"/>
				<path class="st4" d="M119.8,139.9c-1.4-1-2.9-2.1-4.3-3.1c-0.4,1.5-0.9,3-1.3,4.5c3.5,0.9,4.2,6,5.7,6.1c0.2,0,0.4-0.1,0.6-0.2
					c0.2-2.1,0.4-4.2,0.6-6.3C120.7,140.6,120.2,140.3,119.8,139.9z"/>
				<path class="st4" d="M124,112.4c-0.3,0.8-0.6,1.6-0.8,2.4c0.7,0.4,1.5,0.9,2.2,1.3c0.2-0.8,0.4-1.7,0.6-2.5
					C125.3,113.3,124.6,112.8,124,112.4z"/>
				<path class="st4" d="M158.2,35.1c1-2,2.1-4,3.2-6c-0.7-0.5-1.4-1.1-2.2-1.6c-1.2,2.2-2.4,4.5-3.6,6.7
					C156.5,34.5,157.4,34.8,158.2,35.1z"/>
				<path class="st4" d="M139.4,69.5c-2.3,5.7-4.4,11.4-6.5,17.1c0.5,0.3,1,0.7,1.5,1c2.2-5.8,4.6-11.5,7.1-17.2
					C140.9,70,140.1,69.8,139.4,69.5z"/>
				<path class="st4" d="M154.3,36.7c-1.1,2.1-2.2,4.3-3.3,6.4c0.9,0.3,1.9,0.7,2.8,1c1.1-2.3,2.2-4.5,3.3-6.8
					c-0.9-0.3-1.8-0.6-2.7-0.9C154.4,36.6,154.3,36.7,154.3,36.7z"/>
				<path class="st4" d="M143.6,65.8c-0.8-0.2-1.6-0.4-2.5-0.7c-0.2,0.6-0.5,1.2-0.7,1.8c0.8,0.3,1.5,0.6,2.3,0.9
					C143,67.2,143.3,66.5,143.6,65.8z"/>
				<path class="st4" d="M130.1,94.5c-0.9,2.6-1.8,5.3-2.7,7.9c-0.9,2.5-1.7,5-2.6,7.5c0.6,0.4,1.2,0.8,1.9,1.1
					c1.5-5.4,3.1-10.6,5-15.9C131.1,95,130.6,94.7,130.1,94.5z"/>
				<path class="st4" d="M114.6,77.5c-0.8-0.5-1.5-1-2.3-1.5c-0.7,1.9-1.3,3.8-2,5.7c0.8,0.4,1.5,0.8,2.3,1.2
					C113.3,81.1,114,79.3,114.6,77.5z"/>
				<path class="st4" d="M120,55.6c1,0.4,1.9,0.7,2.9,1.1c2.5-6,5.1-11.9,7.8-17.8c-1.1-0.3-2.1-0.7-3.2-1
					C124.9,43.7,122.4,49.7,120,55.6z"/>
				<path class="st4" d="M97.9,120.9c1,0.7,2,1.4,3.1,2.1c0.3,0.2,0.7,0.5,1,0.7c0.8-5.4,1.9-10.8,3.2-16.2c-0.9-0.5-1.8-1-2.7-1.5
					C100.9,111,99.4,116,97.9,120.9z"/>
				<path class="st4" d="M101.2,129.6c0.1-1,0.2-2,0.4-3c-1.5-1.1-3-2.1-4.5-3.2c-1.2,4-2.4,7.9-3.6,11.9c-0.1,0.5-0.3,0.9-0.4,1.4
					c2.3,1.5,4.6,2.9,7,4.3c0.1,0,0.3,0,0.4,0.1C100.6,137.3,100.8,133.5,101.2,129.6z"/>
				<path class="st4" d="M92.4,139.3c-0.6,2.3-1.2,4.7-2.1,6.9c0.4,0.7,0.9,1.1,1.6,1.2c2.1,0.2,3.2-3.3,5.2-5.2
					C95.5,141.2,94,140.3,92.4,139.3z"/>
				<path class="st4" d="M106.7,101.8c-0.8-0.5-1.6-1-2.4-1.5c-0.3,1-0.7,2.1-1,3.1c0.9,0.5,1.7,1,2.6,1.4
					C106.1,103.8,106.4,102.8,106.7,101.8z"/>
				<path class="st4" d="M128.5,35.6c1.1,0.3,2.1,0.7,3.2,1c1.1-2.3,2.1-4.6,3.2-7c-1-0.4-2.1-0.7-3.1-1.1
					C130.7,30.9,129.6,33.2,128.5,35.6z"/>
				<path class="st4" d="M136.1,27.3c0.4-0.8,0.7-1.5,1.1-2.3c1.1-2.4,2.3-4.7,3.5-7.1c-1-0.3-2-0.6-3-0.9c-0.4,0.9-0.9,1.7-1.3,2.6
					c-1.1,2.2-2.2,4.4-3.3,6.7C134,26.6,135,26.9,136.1,27.3z"/>
				<path class="st4" d="M118.2,60.4c-1.7,4.4-3.3,8.8-4.9,13.2c0.8,0.5,1.5,1,2.3,1.5c1.7-4.5,3.5-9,5.3-13.5
					C120,61.2,119.1,60.8,118.2,60.4z"/>
				<path class="st4" d="M105.9,95.4c-0.2,0.8-0.5,1.5-0.7,2.3c0.8,0.5,1.5,1,2.3,1.5c1.3-4.6,2.8-9.2,4.4-13.8
					c-0.8-0.4-1.5-0.8-2.3-1.2C108.3,87.9,107.1,91.7,105.9,95.4z"/>
			</g>
		</g>
		<g>
			<path class="st6" d="M138.7,90.8c2.1,4.3,4.6,8.3,7.4,12.1c1.2,1.6,3.8,0,2.6-1.5c-2.8-3.8-5.3-7.8-7.4-12.1
				C140.5,87.5,137.8,89,138.7,90.8L138.7,90.8z"/>
			<path class="st6" d="M127.8,23.3c2,1.7,4,3.3,6.1,4.8c1.6,1.2,3.1-1.5,1.5-2.6c-1.9-1.4-3.7-2.8-5.4-4.3
				C128.5,19.8,126.3,22,127.8,23.3L127.8,23.3z"/>
			<path class="st6" d="M116.5,19.1c2.6,1.3,5.2,2.3,8,3.1c1.9,0.5,2.7-2.4,0.8-2.9c-2.5-0.7-4.9-1.7-7.3-2.8
				C116.3,15.6,114.7,18.2,116.5,19.1L116.5,19.1z"/>
			<path class="st6" d="M104.8,24.5c3.8-0.9,7.6-1.6,11.5-2.2c1.9-0.3,1.1-3.2-0.8-2.9c-3.9,0.6-7.7,1.3-11.5,2.2
				C102.1,22,102.9,25,104.8,24.5L104.8,24.5z"/>
			<path class="st6" d="M95.9,23.6c4.3-1,8.6-2.1,12.9-3.1c1.9-0.5,1.1-3.4-0.8-2.9c-4.3,1-8.6,2.1-12.9,3.1
				C93.1,21.1,94,24.1,95.9,23.6L95.9,23.6z"/>
			<path class="st6" d="M93.3,28.4c1.9-0.6,3.8-1.1,5.7-1.7c1.9-0.6,1.1-3.5-0.8-2.9c-1.9,0.6-3.8,1.1-5.7,1.7
				C90.7,26,91.4,28.9,93.3,28.4L93.3,28.4z"/>
			<path class="st6" d="M87.4,30.2c1.8-2.2,3.6-4.2,5.6-6.2c1.4-1.4-0.8-3.5-2.2-2.2c-2,2-3.9,4-5.6,6.2
				C84,29.5,86.2,31.7,87.4,30.2L87.4,30.2z"/>
			<path class="st6" d="M79.7,37c2.6-1.5,5.3-2.9,7.9-4.4c1.7-0.9,0.2-3.6-1.5-2.6c-2.6,1.5-5.3,2.9-7.9,4.4
				C76.4,35.3,77.9,37.9,79.7,37L79.7,37z"/>
			<path class="st6" d="M72.8,52.2c2.4-3.4,4.5-6.9,6.3-10.5c0.9-1.7-1.8-3.3-2.6-1.5c-1.8,3.7-3.9,7.2-6.3,10.5
				C69.1,52.2,71.7,53.8,72.8,52.2L72.8,52.2z"/>
			<path class="st6" d="M86.6,62.1c3.5,1.7,7.2,2.7,11,3.1c1.9,0.2,1.9-2.8,0-3.1c-3.3-0.4-6.5-1.3-9.5-2.7
				C86.4,58.7,84.8,61.3,86.6,62.1L86.6,62.1z"/>
			<path class="st6" d="M86.1,72.3c3.5-0.7,7-1.4,10.5-2.1c1.9-0.4,1.1-3.3-0.8-2.9c-3.5,0.7-7,1.4-10.5,2.1
				C83.3,69.8,84.2,72.7,86.1,72.3L86.1,72.3z"/>
			<path class="st6" d="M80.7,72.8c-1.2,2.8-3.7,5.2-5.8,7.4c-2.1,2.2-4.3,5-7.4,5.8c-1.9,0.5-1.1,3.4,0.8,2.9
				c3.4-0.9,5.8-3.5,8.1-5.9c2.5-2.6,5.4-5.3,6.9-8.6C84.1,72.5,81.5,71,80.7,72.8L80.7,72.8z"/>
			<path class="st6" d="M84.4,84.6c1.1-2.9,2.9-5.4,5.1-7.6c1.4-1.4-0.7-3.5-2.2-2.2c-2.6,2.5-4.6,5.6-5.9,8.9
				C80.7,85.6,83.7,86.4,84.4,84.6L84.4,84.6z"/>
			<path class="st6" d="M78.2,90.2c4.7,0.6,9.4,0.5,14.1-0.2c1.9-0.3,1.1-3.2-0.8-2.9c-4.4,0.7-8.8,0.7-13.3,0.1
				C76.3,86.9,76.3,89.9,78.2,90.2L78.2,90.2z"/>
			<path class="st6" d="M113.8,81.3c-0.3,3.7-0.4,7.4-0.1,11.1c0.1,1.9,3.2,2,3.1,0c-0.2-3.7-0.2-7.4,0.1-11.1
				C117,79.3,114,79.4,113.8,81.3L113.8,81.3z"/>
			<path class="st6" d="M65.3,46c4.3-1.7,8.6-3.3,13-4.7c1.9-0.6,1.1-3.5-0.8-2.9c-4.4,1.4-8.7,3-13,4.7
				C62.7,43.7,63.5,46.7,65.3,46L65.3,46z"/>
			<path class="st6" d="M72.5,39.4c0.9-0.8,1.8-1.6,2.7-2.4c0.6-0.5,0.6-1.6,0-2.2c-0.6-0.6-1.5-0.5-2.2,0c-0.9,0.8-1.8,1.6-2.7,2.4
				c-0.6,0.5-0.6,1.6,0,2.2C71,40.1,71.9,40,72.5,39.4L72.5,39.4z"/>
			<path class="st6" d="M59.9,47.4c-0.8,3.8-1.9,7.4-3.4,11c-0.8,1.8,1.9,3.3,2.6,1.5c1.6-3.8,2.8-7.7,3.7-11.7
				C63.2,46.3,60.3,45.5,59.9,47.4L59.9,47.4z"/>
			<path class="st6" d="M54,54.3c-1.4,2.2-2.6,4.5-3.7,6.9c-0.8,1.8,1.8,3.3,2.6,1.5c1.1-2.4,2.4-4.7,3.7-6.9
				C57.6,54.2,55,52.7,54,54.3L54,54.3z"/>
			<path class="st6" d="M51,63.6c-0.9,2.8-1.6,5.7-2.1,8.6c-0.3,1.9,2.6,2.7,2.9,0.8c0.5-2.9,1.2-5.8,2.1-8.6
				C54.6,62.6,51.7,61.8,51,63.6L51,63.6z"/>
			<path class="st6" d="M43.6,75.6c1.2,4.3,2.8,8.6,4.6,12.7c0.8,1.8,3.4,0.2,2.6-1.5c-1.7-3.9-3.1-7.9-4.3-12
				C46,72.9,43.1,73.7,43.6,75.6L43.6,75.6z"/>
			<path class="st6" d="M49.4,77.8c1.4,6,3.1,11.9,5,17.7c0.6,1.8,3.6,1.1,2.9-0.8c-2-5.8-3.7-11.7-5-17.7
				C51.9,75.1,49,75.9,49.4,77.8L49.4,77.8z"/>
			<path class="st6" d="M58.1,89.8c2.1-3.5,4.2-6.9,6.4-10.3c1-1.7-1.6-3.2-2.6-1.5c-2.2,3.4-4.3,6.9-6.4,10.3
				C54.4,90,57.1,91.5,58.1,89.8L58.1,89.8z"/>
			<path class="st6" d="M62.6,90.3c3,3.2,6.2,6.3,9.6,9.1c1.5,1.2,3.7-0.9,2.2-2.2c-3.4-2.8-6.6-5.9-9.6-9.1
				C63.4,86.7,61.3,88.9,62.6,90.3L62.6,90.3z"/>
			<path class="st6" d="M41.3,84.9c1.7,3.4,3.4,6.9,5.1,10.3c0.9,1.8,3.5,0.2,2.6-1.5c-1.7-3.4-3.4-6.9-5.1-10.3
				C43.1,81.6,40.4,83.2,41.3,84.9L41.3,84.9z"/>
			<path class="st6" d="M159.3,42.2c2.2,5.6,2,11.9,4.9,17.3c0.9,1.7,3.6,0.2,2.6-1.5c-2.7-5.1-2.4-11.2-4.6-16.6
				C161.5,39.6,158.6,40.4,159.3,42.2L159.3,42.2z"/>
			<path class="st6" d="M146.8,38.7c3.9,0.4,7.9,0.6,11.8,0.5c2,0,2-3.1,0-3.1c-4,0-7.9-0.1-11.8-0.5
				C144.9,35.5,144.9,38.5,146.8,38.7L146.8,38.7z"/>
			<path class="st6" d="M145.6,34.4c3.8,0,7.6,0.1,11.3,0.3c2,0.1,2-2.9,0-3.1c-3.8-0.2-7.5-0.4-11.3-0.3
				C143.7,31.4,143.7,34.4,145.6,34.4L145.6,34.4z"/>
			<path class="st6" d="M132.1,23.2c2.9,2.6,4.2,6.5,7.2,9c1.5,1.3,3.7-0.9,2.2-2.2c-3-2.5-4.3-6.4-7.2-9
				C132.8,19.7,130.6,21.9,132.1,23.2L132.1,23.2z"/>
			<path class="st6" d="M134.7,32.2c0.8,1.7,1.6,3.4,2.3,5.1c0.8,1.8,3.5,0.2,2.6-1.5c-0.8-1.7-1.6-3.4-2.3-5.1
				C136.5,28.9,133.9,30.5,134.7,32.2L134.7,32.2z"/>
			<path class="st6" d="M126.3,34.6c0.8,3.2,1.3,6.5,1.7,9.8c0.2,1.9,3.3,1.9,3.1,0c-0.4-3.6-1-7.1-1.8-10.6
				C128.8,31.8,125.9,32.6,126.3,34.6L126.3,34.6z"/>
			<path class="st6" d="M118.6,40.3c2.2,2.8,4.5,5.5,7.1,7.9c1.4,1.3,3.6-0.8,2.2-2.2c-2.4-2.3-4.7-4.7-6.7-7.3
				C120.1,37.3,117.4,38.8,118.6,40.3L118.6,40.3z"/>
			<path class="st6" d="M139.4,23c-0.2,1.6-0.2,3.1-0.1,4.7c0.1,2,3.1,2,3.1,0c-0.1-1.6,0-3.2,0.1-4.7c0.1-0.8-0.8-1.5-1.5-1.5
				C140,21.5,139.4,22.2,139.4,23L139.4,23z"/>
			<path class="st6" d="M145.2,30.6c1.8-0.4,3.6-0.4,5.4-0.1c1.9,0.4,2.7-2.6,0.8-2.9c-2.4-0.5-4.7-0.5-7.1,0.1
				C142.5,28.1,143.3,31,145.2,30.6L145.2,30.6z"/>
			<path class="st6" d="M177.2,73.3c2.8-3.2,5.7-6.3,8.7-9.4c1.4-1.4-0.8-3.6-2.2-2.2c-3,3-5.9,6.2-8.7,9.4
				C173.7,72.6,175.9,74.8,177.2,73.3L177.2,73.3z"/>
			<path class="st6" d="M174.8,60.6c-1.1,0.6-1.6,1.7-2.1,2.8c-0.6,1.7-1.2,3.5-1.8,5.2c-0.6,1.9,2.3,2.7,2.9,0.8
				c0.4-1.2,0.8-2.4,1.3-3.6c0.3-0.8,0.4-2.2,1.2-2.6C178,62.3,176.5,59.6,174.8,60.6L174.8,60.6z"/>
			<path class="st6" d="M165.4,61.5c0.2,3.1,0.5,6.2,0.7,9.3c0.2,1.9,3.2,2,3.1,0c-0.2-3.1-0.5-6.2-0.7-9.3
				C168.3,59.6,165.2,59.6,165.4,61.5L165.4,61.5z"/>
			<path class="st6" d="M160.9,62.3c-0.7,2.5-1.5,4.9-2.4,7.3c-0.7,1.8,2.2,2.6,2.9,0.8c0.9-2.4,1.7-4.8,2.4-7.3
				C164.3,61.2,161.4,60.4,160.9,62.3L160.9,62.3z"/>
			<path class="st6" d="M166.6,82.7c1.3-3.6,2.7-7.1,4.4-10.4c0.9-1.8-1.8-3.3-2.6-1.5c-1.8,3.6-3.4,7.4-4.7,11.2
				C163,83.7,165.9,84.5,166.6,82.7L166.6,82.7z"/>
			<path class="st6" d="M161.8,86.5c-0.3,4.1-1.1,8.1-2.2,12.1c-0.5,1.9,2.4,2.7,2.9,0.8c1.2-4.2,2-8.5,2.3-12.9
				C165,84.6,162,84.6,161.8,86.5L161.8,86.5z"/>
			<path class="st6" d="M169.8,74.3c-1.2,3.5-2.4,6.9-3.6,10.4c-0.6,1.9,2.3,2.7,2.9,0.8c1.2-3.5,2.4-6.9,3.6-10.4
				C173.3,73.3,170.4,72.5,169.8,74.3L169.8,74.3z"/>
			<path class="st6" d="M174.2,85.9c1.1-3.2,2.5-6.2,4-9.2c0.9-1.7-1.7-3.3-2.6-1.5c-1.6,3.2-3.1,6.6-4.3,10
				C170.6,86.9,173.5,87.7,174.2,85.9L174.2,85.9z"/>
			<path class="st6" d="M178.8,83.5c1.3-1.7,2.7-3.4,4-5.1c0.5-0.7,0.6-1.5,0-2.2c-0.5-0.5-1.6-0.6-2.2,0c-1.3,1.7-2.7,3.4-4,5.1
				c-0.5,0.7-0.6,1.5,0,2.2C177.2,84.1,178.3,84.2,178.8,83.5L178.8,83.5z"/>
			<path class="st6" d="M181.7,81.4c-0.8,2.1-1.9,4-3.1,5.8c-1.1,1.6,1.6,3.2,2.6,1.5c1.4-2.1,2.5-4.3,3.4-6.6
				C185.3,80.4,182.4,79.6,181.7,81.4L181.7,81.4z"/>
			<path class="st6" d="M173.7,95.5c1.2-1.5,2.5-2.6,4.2-3.4c0.7-0.4,0.9-1.4,0.5-2.1c-0.4-0.8-1.3-0.9-2.1-0.5
				c-1.9,0.9-3.5,2.2-4.8,3.8c-0.5,0.6-0.6,1.5,0,2.2C172.1,96.1,173.2,96.2,173.7,95.5L173.7,95.5z"/>
			<path class="st6" d="M171.2,105.2c2-1.1,4-2.2,6-3.3c1.7-0.9,0.2-3.6-1.5-2.6c-2,1.1-4,2.2-6,3.3
				C167.9,103.5,169.5,106.1,171.2,105.2L171.2,105.2z"/>
			<path class="st6" d="M177.3,110.3c2.2-1.5,4.3-3.2,6.2-5c1.5-1.3-0.7-3.5-2.2-2.2c-1.8,1.6-3.6,3.1-5.6,4.5
				C174.2,108.8,175.7,111.4,177.3,110.3L177.3,110.3z"/>
			<path class="st6" d="M180.5,97.7c1-0.9,1.9-1.8,2.9-2.7c0.6-0.6,0.6-1.6,0-2.2c-0.6-0.6-1.6-0.6-2.2,0c-1,0.9-1.9,1.8-2.9,2.7
				c-0.6,0.6-0.6,1.6,0,2.2C178.9,98.3,179.9,98.3,180.5,97.7L180.5,97.7z"/>
			<path class="st6" d="M169.8,110.5c1.6,3.5,3.1,6.9,4.7,10.4c0.8,1.8,3.4,0.2,2.6-1.5c-1.6-3.5-3.1-6.9-4.7-10.4
				C171.6,107.1,169,108.7,169.8,110.5L169.8,110.5z"/>
			<path class="st6" d="M160.4,119.2c-1.3,4.8-2.8,9.5-4.6,14.2c-0.7,1.8,2.3,2.6,2.9,0.8c1.7-4.7,3.2-9.4,4.6-14.2
				C163.8,118.1,160.9,117.3,160.4,119.2L160.4,119.2z"/>
			<path class="st6" d="M153.4,120c-1.8,3.2-3.7,6.5-5.9,9.4c-1.2,1.5,1,3.7,2.2,2.2c2.4-3.2,4.5-6.6,6.4-10.1
				C157,119.8,154.3,118.3,153.4,120L153.4,120z"/>
			<path class="st6" d="M145,124.2c-1.1,4.2-2.8,8.1-5,11.9c-1,1.7,1.6,3.2,2.6,1.5c2.3-4,4.1-8.2,5.3-12.6
				C148.5,123.1,145.5,122.3,145,124.2L145,124.2z"/>
			<path class="st6" d="M145.5,134.3c-0.6,1.8-0.8,3.8-1.4,5.6c-0.6,1.9,2.3,2.7,2.9,0.8c0.6-1.8,0.8-3.8,1.4-5.6
				C149.1,133.2,146.1,132.4,145.5,134.3L145.5,134.3z"/>
			<path class="st6" d="M152.2,135.4c0.6-1.9,2.1-3.3,2.9-5c0.8-1.8-1.8-3.3-2.6-1.5c-0.9,2-2.6,3.6-3.3,5.7
				C148.7,136.4,151.7,137.2,152.2,135.4L152.2,135.4z"/>
			<path class="st6" d="M164,119.8c-0.2,2.5-0.5,5-0.7,7.4c-0.2,2,2.9,1.9,3.1,0c0.2-2.5,0.5-5,0.7-7.4
				C167.3,117.8,164.2,117.9,164,119.8L164,119.8z"/>
			<path class="st6" d="M130.6,128.7c0,3.7,0,7.3,0,11c0,2,3.1,2,3.1,0c0-3.7,0-7.3,0-11C133.6,126.8,130.6,126.8,130.6,128.7
				L130.6,128.7z"/>
			<path class="st6" d="M134.2,134.3c-0.4,2.4-0.6,4.9-0.5,7.3c0.1,2,3.1,2,3.1,0c-0.1-2.2,0-4.4,0.4-6.5
				C137.5,133.1,134.6,132.3,134.2,134.3L134.2,134.3z"/>
			<path class="st6" d="M114,140.3c2.3,1.3,4.6,2.6,6.8,4.1c1.7,1.1,3.2-1.6,1.5-2.6c-2.2-1.4-4.5-2.8-6.8-4.1
				C113.8,136.7,112.3,139.3,114,140.3L114,140.3z"/>
			<path class="st6" d="M118.7,137.3c2.1-2.3,4.4-4.4,6.7-6.4c1.5-1.3-0.7-3.4-2.2-2.2c-2.4,2-4.6,4.2-6.7,6.4
				C115.2,136.5,117.3,138.7,118.7,137.3L118.7,137.3z"/>
			<path class="st6" d="M102.8,131.4c3.3,1.3,6.5,2.6,9.8,4c1.8,0.7,2.6-2.2,0.8-2.9c-3.3-1.3-6.5-2.6-9.8-4
				C101.8,127.7,101,130.6,102.8,131.4L102.8,131.4z"/>
			<path class="st6" d="M80,135.9c5,1,9.8,2.5,14.4,4.6c1.8,0.8,3.3-1.8,1.5-2.6c-4.9-2.2-9.9-3.8-15.2-4.9
				C78.9,132.6,78.1,135.5,80,135.9L80,135.9z"/>
			<path class="st6" d="M72.6,134.4c1.3,0.3,2.5,0.7,3.7,1.2c0.8,0.3,1.6,0.2,2.1-0.5c0.4-0.6,0.2-1.8-0.5-2.1
				c-1.4-0.6-2.9-1.2-4.4-1.6C71.5,131,70.7,133.9,72.6,134.4L72.6,134.4z"/>
			<path class="st6" d="M60.6,123.3c4.3,1.3,8.4,3.1,12.4,5.3c1.7,1,3.2-1.7,1.5-2.6c-4.1-2.4-8.5-4.3-13.1-5.6
				C59.6,119.8,58.8,122.8,60.6,123.3L60.6,123.3z"/>
			<path class="st6" d="M48.3,109.2c2.3,2,4.8,3.6,7.6,4.8c1.8,0.8,3.3-1.9,1.5-2.6c-2.5-1.1-4.9-2.5-6.9-4.4
				C49,105.8,46.8,107.9,48.3,109.2L48.3,109.2z"/>
			<path class="st6" d="M46.2,100.5c2.4,1.3,4.7,2.8,6.7,4.5c1.5,1.3,3.7-0.9,2.2-2.2c-2.3-1.9-4.7-3.6-7.4-5
				C46,96.9,44.5,99.6,46.2,100.5L46.2,100.5z"/>
			<path class="st6" d="M54.5,100.3c2.9,2,5.7,3.9,8.6,5.9c1.6,1.1,3.1-1.5,1.5-2.6c-2.9-2-5.7-3.9-8.6-5.9
				C54.4,96.6,52.9,99.2,54.5,100.3L54.5,100.3z"/>
			<path class="st6" d="M57.4,109.4c1.2,1.5,2.5,3,3.7,4.6c0.5,0.6,1.6,0.5,2.2,0c0.6-0.6,0.5-1.5,0-2.2c-1.2-1.5-2.5-3-3.7-4.6
				c-0.5-0.6-1.6-0.5-2.2,0C56.8,107.9,56.9,108.7,57.4,109.4L57.4,109.4z"/>
			<path class="st6" d="M63,110.5c3.1,4,6.3,7.9,9.5,11.8c1.3,1.5,3.4-0.7,2.2-2.2c-3.1-3.6-6.1-7.4-9.1-11.1
				C64.4,107.5,61.8,109,63,110.5L63,110.5z"/>
			<path class="st6" d="M74.1,125.5c3.7,0.5,7.4,1.3,11,2.3c1.9,0.5,2.7-2.4,0.8-2.9c-3.6-1-7.3-1.7-11-2.3
				C73,122.3,72.2,125.2,74.1,125.5L74.1,125.5z"/>
			<path class="st6" d="M88.3,132.3c4.7,2.3,9.6,3.6,14.6,4.9c1.9,0.5,2.7-2.4,0.8-2.9c-4.7-1.2-9.5-2.5-13.9-4.6
				C88,128.8,86.5,131.4,88.3,132.3L88.3,132.3z"/>
			<path class="st6" d="M88.6,125.5c2.6,1.8,5.2,3.6,7.8,5.4c1.6,1.1,3.1-1.5,1.5-2.6c-2.6-1.8-5.2-3.6-7.8-5.4
				C88.5,121.7,87,124.4,88.6,125.5L88.6,125.5z"/>
			<path class="st6" d="M95.3,126.1c3.2-0.2,6.3,0.1,9.4,0.8c1.9,0.5,2.7-2.5,0.8-2.9c-3.4-0.8-6.7-1.1-10.2-0.9
				C93.3,123.1,93.3,126.2,95.3,126.1L95.3,126.1z"/>
			<path class="st6" d="M99.4,114.5c1.9,1.4,3.8,2.8,5.7,4.2c1.5,1.2,3.7-0.9,2.2-2.2c-2.1-1.6-4.2-3.2-6.3-4.7
				C99.4,110.7,97.8,113.4,99.4,114.5L99.4,114.5z"/>
			<path class="st6" d="M110,117.8c0.6,3.5,1.2,7,1.8,10.5c0.3,1.9,3.3,1.1,2.9-0.8c-0.6-3.5-1.2-7-1.8-10.5
				C112.6,115.1,109.7,115.9,110,117.8L110,117.8z"/>
			<path class="st6" d="M132.4,57.6c2.6-2.4,5.3-4.9,7.9-7.3c1.4-1.3-0.7-3.5-2.2-2.2c-2.6,2.4-5.3,4.9-7.9,7.3
				C128.8,56.8,130.9,58.9,132.4,57.6L132.4,57.6z"/>
			<path class="st6" d="M142,54.8c-0.1,2.1-0.1,4.3-0.2,6.4c-0.1,2,3,2,3.1,0c0.1-2.1,0.1-4.3,0.2-6.4C145.1,52.9,142,52.9,142,54.8
				L142,54.8z"/>
			<path class="st6" d="M130.4,63.9c1.5,1.7,3.1,3.4,4.8,4.9c1.5,1.3,3.6-0.8,2.2-2.2c-1.7-1.5-3.3-3.2-4.8-4.9
				C131.2,60.3,129.1,62.5,130.4,63.9L130.4,63.9z"/>
			<path class="st6" d="M137.1,78.7c2.7-3.2,5.4-6.4,8-9.6c1.3-1.5-0.9-3.7-2.2-2.2c-2.7,3.2-5.4,6.4-8,9.6
				C133.7,78.1,135.8,80.2,137.1,78.7L137.1,78.7z"/>
			<path class="st6" d="M144.1,81.9c2,2.9,4,5.7,6,8.6c1.1,1.6,3.8,0.1,2.6-1.5c-2-2.9-4-5.7-6-8.6
				C145.6,78.8,142.9,80.3,144.1,81.9L144.1,81.9z"/>
			<path class="st6" d="M149.4,75.2c0.9,2.1,2,4.1,3.1,6.1c1,1.7,3.6,0.2,2.6-1.5c-1.1-2-2.2-4-3.1-6.1
				C151.3,71.9,148.6,73.4,149.4,75.2L149.4,75.2z"/>
			<path class="st6" d="M154.5,71.7c1.7,2.1,3.7,3.9,6,5.3c1.7,1,3.2-1.6,1.5-2.6c-2.1-1.3-3.9-2.9-5.4-4.8
				C155.5,68,153.3,70.1,154.5,71.7L154.5,71.7z"/>
			<path class="st6" d="M125.9,92.8c0.6-3.4,1.1-6.8,1.7-10.2c0.3-1.9-2.6-2.7-2.9-0.8c-0.6,3.4-1.1,6.8-1.7,10.2
				C122.6,93.9,125.6,94.7,125.9,92.8L125.9,92.8z"/>
			<path class="st6" d="M124.4,78.4c3,2.6,6.2,4.6,9.9,6.1c1.8,0.7,2.6-2.2,0.8-2.9c-3.1-1.3-6-3.1-8.5-5.3
				C125,74.9,122.9,77.1,124.4,78.4L124.4,78.4z"/>
			<path class="st6" d="M135.5,83.9c-0.6,3.5-0.9,7.1-1,10.6c-0.1,2,3,2,3.1,0c0.1-3.3,0.4-6.6,0.9-9.8
				C138.8,82.8,135.8,82,135.5,83.9L135.5,83.9z"/>
			<path class="st6" d="M127.2,90.2c0.3,3.1,1.2,6,2.7,8.8c0.9,1.7,3.6,0.2,2.6-1.5c-1.2-2.3-2-4.7-2.3-7.2
				C130.1,88.3,127,88.3,127.2,90.2L127.2,90.2z"/>
			<path class="st6" d="M115.1,100.8c0.4,3.3,0.7,6.5,0.9,9.8c0.1,2,3.2,2,3.1,0c-0.2-3.6-0.5-7.1-1-10.6
				C117.8,98.1,114.8,98.9,115.1,100.8L115.1,100.8z"/>
			<path class="st6" d="M98.5,98.4c1.8,2.8,4,5.4,6.4,7.7c1.4,1.4,3.6-0.8,2.2-2.2c-2.2-2.2-4.2-4.5-5.9-7.1
				C100,95.2,97.4,96.7,98.5,98.4L98.5,98.4z"/>
			<path class="st6" d="M95.2,79.6c1-0.7,1.9-1.3,2.9-2c0.7-0.5,1-1.3,0.5-2.1c-0.4-0.7-1.4-1-2.1-0.5c-1,0.7-1.9,1.3-2.9,2
				c-0.7,0.5-1,1.3-0.5,2.1C93.5,79.7,94.5,80.1,95.2,79.6L95.2,79.6z"/>
			<path class="st6" d="M103.6,77.7c0.7-1.9,1.5-3.8,2.2-5.7c0.7-1.8-2.2-2.6-2.9-0.8c-0.7,1.9-1.5,3.8-2.2,5.7
				C99.9,78.7,102.9,79.5,103.6,77.7L103.6,77.7z"/>
			<path class="st6" d="M99.6,61.5c2.8-0.9,5.5-1.9,8.2-3c1.8-0.7,1-3.7-0.8-2.9c-2.7,1.1-5.5,2.1-8.2,3
				C97,59.1,97.8,62.1,99.6,61.5L99.6,61.5z"/>
			<path class="st6" d="M99.6,52.2c0.7-2.5,1.7-4.8,3.1-7.1c1-1.7-1.6-3.2-2.6-1.5c-1.5,2.4-2.7,5-3.4,7.8
				C96.1,53.3,99.1,54.1,99.6,52.2L99.6,52.2z"/>
			<path class="st6" d="M93.3,44.2c0.5-1.9,1.1-3.7,1.8-5.5c0.8-1.8-1.8-3.3-2.6-1.5c-0.9,2-1.6,4.1-2.1,6.2
				C89.9,45.3,92.9,46.1,93.3,44.2L93.3,44.2z"/>
			<path class="st6" d="M103.5,29.8c1.1,0.4,2.1,0.8,3.2,1.2c0.8,0.3,1.7-0.3,1.9-1.1c0.2-0.9-0.3-1.6-1.1-1.9
				c-1.1-0.4-2.1-0.8-3.2-1.2c-0.8-0.3-1.7,0.3-1.9,1.1C102.2,28.8,102.8,29.5,103.5,29.8L103.5,29.8z"/>
			<path class="st6" d="M58.6,71.7c1.2-2.6,2.3-5.3,3.5-7.9c0.8-1.8-1.8-3.3-2.6-1.5c-1.2,2.6-2.3,5.3-3.5,7.9
				C55.2,71.9,57.8,73.5,58.6,71.7L58.6,71.7z"/>
			<path class="st6" d="M75.8,47c-1.4,2.2-2.7,4.5-3.7,6.9c-0.8,1.8,1.9,3.3,2.6,1.5c1-2.4,2.3-4.7,3.7-6.9
				C79.5,46.9,76.9,45.4,75.8,47L75.8,47z"/>
			<path class="st6" d="M59,71c1.7,4.1,4.1,7.8,7.1,11c1.3,1.4,3.5-0.7,2.2-2.2c-2.8-3.1-5-6.6-6.7-10.4C60.9,67.7,58.2,69.2,59,71
				L59,71z"/>
			<path class="st6" d="M77.5,99.9c2.2,0.9,4.4,1.8,6.5,2.7c1.8,0.7,2.6-2.2,0.8-2.9c-2.2-0.9-4.4-1.8-6.5-2.7
				C76.5,96.2,75.7,99.2,77.5,99.9L77.5,99.9z"/>
			<path class="st6" d="M71.2,106.8c2.6,1.9,5.4,3.3,8.4,4.4c1.8,0.7,2.6-2.3,0.8-2.9c-2.8-1-5.3-2.4-7.7-4.1
				C71.1,103,69.6,105.6,71.2,106.8L71.2,106.8z"/>
			<path class="st6" d="M95.2,108.8c0.8,0.2,1.6,0.4,2.3,0.7c0.8,0.2,1.7-0.3,1.9-1.1c0.2-0.8-0.2-1.6-1.1-1.9
				c-0.8-0.2-1.6-0.4-2.3-0.7c-0.8-0.2-1.7,0.3-1.9,1.1C93.9,107.7,94.3,108.6,95.2,108.8L95.2,108.8z"/>
			<path class="st6" d="M120.5,120.1c0.8-3.2,1.7-6.3,2.8-9.4c0.7-1.8-2.3-2.6-2.9-0.8c-1.1,3.1-2,6.2-2.8,9.4
				C117.1,121.2,120.1,122.1,120.5,120.1L120.5,120.1z"/>
			<path class="st6" d="M128.9,122.5c0.6-3.6,1.1-7.3,1.2-11c0.1-2-3-2-3.1,0c-0.2,3.4-0.5,6.8-1.1,10.2
				C125.6,123.6,128.5,124.4,128.9,122.5L128.9,122.5z"/>
			<path class="st6" d="M147.3,120.3c-1-3-1.7-6.1-2.3-9.2c-0.4-1.9-3.3-1.1-2.9,0.8c0.6,3.1,1.4,6.2,2.3,9.2
				C145,123,147.9,122.2,147.3,120.3L147.3,120.3z"/>
			<path class="st6" d="M140.4,102.6c-1.8-2-3.6-3.9-5.4-5.9c-1.3-1.4-3.5,0.7-2.2,2.2c1.8,2,3.6,3.9,5.4,5.9
				C139.6,106.2,141.7,104,140.4,102.6L140.4,102.6z"/>
			<path class="st6" d="M84.7,84.8c2.2-0.6,4.4-1,6.6-1.2c2-0.1,2-3.2,0-3.1c-2.5,0.1-5,0.6-7.4,1.3C82,82.4,82.8,85.4,84.7,84.8
				L84.7,84.8z"/>
			<path class="st6" d="M127.1,140.1c1.3-0.6,2.5-1.3,3.7-2.1c0.7-0.5,1-1.3,0.5-2.1c-0.4-0.7-1.4-1-2.1-0.5
				c-1.2,0.8-2.4,1.5-3.7,2.1c-0.8,0.3-0.9,1.4-0.5,2.1C125.4,140.3,126.3,140.4,127.1,140.1L127.1,140.1z"/>
			<path class="st6" d="M107.4,144c-0.6-1.3-1.1-2.7-1.6-4.1c-0.6-1.9-3.5-1.1-2.9,0.8c0.5,1.7,1.1,3.3,1.9,4.8
				c0.4,0.7,1.4,0.9,2.1,0.5C107.6,145.6,107.7,144.7,107.4,144L107.4,144z"/>
			<path class="st6" d="M93.7,144.3c0.1,0.4,0,0,0-0.1c0-0.1,0-0.3,0-0.4c0,0.1,0,0.1,0,0.2c0-0.1,0-0.2,0.1-0.3
				c0-0.1,0.1-0.2,0.1-0.4c0.3-0.7-0.3-1.7-1.1-1.9c-0.9-0.2-1.6,0.3-1.9,1.1c-0.3,0.8-0.3,1.7-0.2,2.6c0.1,0.8,1.2,1.3,1.9,1.1
				C93.5,145.9,93.8,145.2,93.7,144.3L93.7,144.3z"/>
			<path class="st6" d="M78.2,141.4c0.8-0.9,1.7-1.8,2.6-2.6c0.6-0.5,0.5-1.6,0-2.2c-0.6-0.6-1.5-0.5-2.2,0
				c-0.9,0.8-1.8,1.7-2.6,2.6c-0.5,0.6-0.6,1.5,0,2.2C76.6,142,77.6,142.1,78.2,141.4L78.2,141.4z"/>
			<path class="st6" d="M103.1,129.4c-0.4-0.9-0.7-1.8-1-2.7c-0.5-1.9-3.4-1.1-2.9,0.8c0.3,1.2,0.8,2.3,1.3,3.5
				c0.3,0.7,1.4,0.9,2.1,0.5C103.3,131,103.4,130.2,103.1,129.4L103.1,129.4z"/>
			<path class="st6" d="M62,131.2c0.9,1.4,1.8,2.8,3.3,3.7c1.7,1,3.2-1.6,1.5-2.6c-1-0.6-1.6-1.6-2.2-2.6
				C63.6,128,60.9,129.5,62,131.2L62,131.2z"/>
			<path class="st6" d="M51.1,123.5c1.1,0.6,2.1,1.2,3.3,1.7c0.7,0.3,1.6,0.2,2.1-0.5c0.4-0.7,0.2-1.7-0.5-2.1
				c-1.1-0.5-2.2-1.1-3.3-1.7C50.9,119.9,49.4,122.5,51.1,123.5L51.1,123.5z"/>
			<path class="st6" d="M110.8,142.1c0.2-0.9,0.4-1.6,1-2.3c0.5-0.7,0.1-1.7-0.5-2.1c-0.8-0.4-1.6-0.1-2.1,0.5
				c-0.6,0.9-1.1,2-1.3,3.1c-0.2,0.8,0.2,1.6,1.1,1.9C109.7,143.4,110.7,143,110.8,142.1L110.8,142.1z"/>
			<path class="st6" d="M158.8,137.3c-1.2-0.2-2.4-0.6-3.5-1.2c-1.7-0.9-3.3,1.7-1.5,2.6c1.3,0.7,2.7,1.2,4.2,1.5
				c0.8,0.2,1.6-0.2,1.9-1.1C160.1,138.4,159.6,137.4,158.8,137.3L158.8,137.3z"/>
			<path class="st6" d="M168.2,130.6c0.4,0,0,0-0.1,0c-0.1,0-0.3-0.1-0.4-0.1c-0.3-0.1-0.5-0.1-0.8-0.2c-0.8-0.2-1.7,0.3-1.9,1.1
				c-0.2,0.8,0.2,1.7,1.1,1.9c0.7,0.2,1.4,0.3,2.2,0.4c0.4,0,0.8-0.2,1.1-0.4c0.3-0.3,0.5-0.7,0.4-1.1c0-0.4-0.1-0.8-0.4-1.1
				C168.9,130.8,168.6,130.7,168.2,130.6L168.2,130.6z"/>
			<path class="st6" d="M177.6,123.2c-1.3-0.2-2.5-0.3-3.8-0.3c-2,0-2,3,0,3.1c1,0,2,0.1,3,0.2c0.8,0.1,1.6-0.2,1.9-1.1
				C178.8,124.3,178.4,123.3,177.6,123.2L177.6,123.2z"/>
			<path class="st6" d="M182.4,117.4c-0.1-1.5,0-2.9,0.2-4.4c0.1-0.8-0.2-1.6-1.1-1.9c-0.7-0.2-1.8,0.2-1.9,1.1
				c-0.3,1.7-0.4,3.4-0.3,5.2C179.4,119.4,182.5,119.4,182.4,117.4L182.4,117.4z"/>
		</g>
		<g>
			<path class="st7" d="M91.7,67.5c7.2-0.8,14.4-1.9,21.5-3.3c2.9-0.6,1.7-5-1.2-4.4c-6.7,1.3-13.5,2.4-20.3,3.1
				C88.8,63.2,88.8,67.8,91.7,67.5L91.7,67.5z"/>
			<path class="st7" d="M108.1,59.9c2.6-0.8,5.1-1.7,7.7-2.5c2.8-0.9,1.6-5.3-1.2-4.4c-2.6,0.8-5.1,1.7-7.7,2.5
				C104.1,56.4,105.3,60.9,108.1,59.9L108.1,59.9z"/>
			<path class="st7" d="M101,59.1c2.6-2.2,5.2-4.3,8.4-5.4c2.8-0.9,1.6-5.3-1.2-4.4c-4,1.3-7.3,3.9-10.4,6.5
				C95.5,57.8,98.8,61,101,59.1L101,59.1z"/>
			<path class="st7" d="M94.5,46.1c-1,4-1.9,8.1-2.8,12.1c-0.6,2.9,3.8,4.1,4.4,1.2C97,55.3,98,51.3,99,47.3
				C99.7,44.4,95.3,43.2,94.5,46.1L94.5,46.1z"/>
			<path class="st7" d="M88.4,51.3c0.1,0.1,0.1,0.1,0.2,0.2c0.4,0.4,1,0.7,1.6,0.7c0.6,0,1.2-0.2,1.6-0.7c0.4-0.4,0.7-1,0.7-1.6
				c0-0.6-0.2-1.2-0.7-1.6c-0.1-0.1-0.1-0.1-0.2-0.2c-0.4-0.4-1-0.7-1.6-0.7c-0.6,0-1.2,0.2-1.6,0.7c-0.4,0.4-0.7,1-0.7,1.6
				C87.8,50.3,88,50.9,88.4,51.3L88.4,51.3z"/>
			<path class="st7" d="M84.1,54.8c1.7,1.3,3.4,2.6,5,3.9c1,0.8,2.3,0.9,3.2,0c0.8-0.8,1-2.5,0-3.2c-1.7-1.3-3.4-2.6-5-3.9
				c-1-0.8-2.3-0.9-3.2,0C83.3,52.4,83.1,54.1,84.1,54.8L84.1,54.8z"/>
			<path class="st7" d="M85.1,31.3c-0.4,5.7-0.8,11.4-1.4,17.1c-0.3,2.9,4.3,2.9,4.6,0c0.5-5.7,1-11.4,1.4-17.1
				C89.8,28.4,85.3,28.4,85.1,31.3L85.1,31.3z"/>
			<path class="st7" d="M90.2,28.8c-0.3,3.7-0.2,7.3,0.4,10.9c0.4,2.9,4.8,1.7,4.4-1.2c-0.5-3.2-0.5-6.5-0.2-9.7
				C95.1,25.8,90.5,25.8,90.2,28.8L90.2,28.8z"/>
			<path class="st7" d="M95.8,28.3c0.2,3.3,0.3,6.6,0.5,10c0.1,2.9,4.7,2.9,4.6,0c-0.2-3.3-0.3-6.6-0.5-10
				C100.2,25.3,95.6,25.3,95.8,28.3L95.8,28.3z"/>
			<path class="st7" d="M102.3,34.2c1.7,0.6,3.4,1.3,5,2.1c1.1,0.6,2.5,0.3,3.1-0.8c0.6-1,0.3-2.6-0.8-3.1c-2-1-4-1.9-6.1-2.6
				c-1.2-0.4-2.5,0.5-2.8,1.6C100.3,32.6,101.1,33.8,102.3,34.2L102.3,34.2z"/>
			<path class="st7" d="M101.9,25c1.5,1.4,3.1,2.6,4.9,3.7c2.5,1.5,4.8-2.5,2.3-4c-1.4-0.8-2.7-1.8-4-3C103,19.7,99.8,23,101.9,25
				L101.9,25z"/>
			<path class="st7" d="M102,44.4c0.2-0.5,0.4-0.9,0.7-1.4c0.3-0.6,0.4-1.2,0.2-1.8c-0.1-0.5-0.6-1.1-1.1-1.4
				c-0.5-0.3-1.2-0.4-1.8-0.2c-0.5,0.2-1.1,0.5-1.4,1.1c-0.2,0.5-0.4,0.9-0.7,1.4c-0.3,0.6-0.4,1.2-0.2,1.8c0.1,0.5,0.6,1.1,1.1,1.4
				c0.5,0.3,1.2,0.4,1.8,0.2C101.2,45.3,101.7,45,102,44.4L102,44.4z"/>
			<path class="st7" d="M106.8,42.9c2.6,0.2,5.2-0.1,7.7-0.6c2.9-0.6,1.7-5-1.2-4.4c-2.1,0.5-4.3,0.6-6.5,0.4
				C103.8,38.1,103.9,42.7,106.8,42.9L106.8,42.9z"/>
			<path class="st7" d="M111.2,37c0.2,0.1,0.5,0.2,0.7,0.3c0.6,0.3,1.2,0.4,1.8,0.2c0.5-0.1,1.1-0.6,1.4-1.1
				c0.3-0.5,0.4-1.2,0.2-1.8c-0.2-0.5-0.5-1.1-1.1-1.4c-0.2-0.1-0.5-0.2-0.7-0.3c-0.6-0.3-1.2-0.4-1.8-0.2c-0.5,0.1-1.1,0.6-1.4,1.1
				c-0.3,0.5-0.4,1.2-0.2,1.8C110.3,36.2,110.7,36.7,111.2,37L111.2,37z"/>
			<path class="st7" d="M113.7,29.4c1-2.6,1.9-5.2,2.9-7.8c1-2.8-3.4-4-4.4-1.2c-1,2.6-1.9,5.2-2.9,7.8
				C108.3,30.9,112.7,32.1,113.7,29.4L113.7,29.4z"/>
			<path class="st7" d="M118.8,33c2.8-3.4,5.5-7,7.9-10.7c1.6-2.5-2.3-4.8-4-2.3c-2.2,3.4-4.6,6.6-7.2,9.7
				C113.7,32,116.9,35.3,118.8,33L118.8,33z"/>
			<path class="st7" d="M125.9,36.6c0.6-2.3,1.3-4.5,2-6.7c0.9-2.8-3.5-4-4.4-1.2c-0.7,2.2-1.4,4.5-2,6.7
				C120.7,38.2,125.2,39.4,125.9,36.6L125.9,36.6z"/>
			<path class="st7" d="M104.9,48.6c5.3,0.2,10.7,0.2,16-0.2c2.9-0.2,2.9-4.8,0-4.6c-5.3,0.3-10.7,0.4-16,0.2
				C102,43.9,102,48.5,104.9,48.6L104.9,48.6z"/>
			<path class="st7" d="M119.7,53.1c1.6,0.6,3.3,1.1,4.9,1.7c1.2,0.4,2.5-0.5,2.8-1.6c0.3-1.3-0.4-2.4-1.6-2.8
				c-1.6-0.6-3.3-1.1-4.9-1.7c-1.2-0.4-2.5,0.5-2.8,1.6C117.7,51.5,118.5,52.7,119.7,53.1L119.7,53.1z"/>
			<path class="st7" d="M131.7,52.7c2.4-0.6,4.9-1.2,7.3-1.7c2.9-0.7,1.7-5.1-1.2-4.4c-2.4,0.6-4.9,1.2-7.3,1.7
				C127.6,49,128.8,53.4,131.7,52.7L131.7,52.7z"/>
			<path class="st7" d="M132.8,38.9c1.9,2.3,3.9,4.6,5.8,6.9c1.9,2.3,5.1-1,3.2-3.2c-1.9-2.3-3.9-4.6-5.8-6.9
				C134.2,33.4,130.9,36.6,132.8,38.9L132.8,38.9z"/>
			<path class="st7" d="M126.9,27.7c1.3,1.2,2.4,2.6,3.2,4.2c1.4,2.6,5.3,0.3,4-2.3c-1-1.9-2.4-3.7-4-5.2
				C128,22.4,124.8,25.7,126.9,27.7L126.9,27.7z"/>
			<path class="st7" d="M142.9,45c-0.7,3.5-2.4,6.6-5,9.1c-2.1,2.1,1.1,5.3,3.2,3.2c3.1-3,5.3-6.9,6.2-11.1
				C147.9,43.4,143.5,42.2,142.9,45L142.9,45z"/>
			<path class="st7" d="M146,43c1.5,0.3,3.1,0.5,4.7,0.4c1.2,0,2.3-1,2.3-2.3c0-1.2-1-2.3-2.3-2.3c-1.2,0-2.3,0-3.4-0.3
				c-1.2-0.2-2.5,0.3-2.8,1.6C144.1,41.3,144.8,42.7,146,43L146,43z"/>
			<path class="st7" d="M153.9,42.5c0.5,1.6,1,3.3,1.5,4.9c0.8,2.8,5.3,1.6,4.4-1.2c-0.5-1.6-1-3.3-1.5-4.9
				C157.5,38.5,153,39.7,153.9,42.5L153.9,42.5z"/>
			<path class="st7" d="M150,55.7c3.7-0.9,7.4-1.5,11.1-2c2.9-0.4,1.7-4.8-1.2-4.4c-3.7,0.5-7.4,1.2-11.1,2
				C145.9,52,147.1,56.4,150,55.7L150,55.7z"/>
			<path class="st7" d="M137,72.1c4.5-4.8,9.7-8.7,15.5-11.9c2.6-1.4,0.3-5.4-2.3-4c-6.1,3.3-11.6,7.6-16.4,12.6
				C131.7,71,135,74.3,137,72.1L137,72.1z"/>
			<path class="st7" d="M144.6,71.3c3-1.9,6.1-3.7,9.2-5.3c2.6-1.4,0.3-5.3-2.3-4c-3.1,1.7-6.2,3.4-9.2,5.3
				C139.8,68.9,142.1,72.9,144.6,71.3L144.6,71.3z"/>
			<path class="st7" d="M152.7,74.3c1.4-1.6,2.9-3.2,4.3-4.8c0.8-0.9,0.9-2.3,0-3.2c-0.8-0.8-2.4-0.9-3.2,0
				c-1.4,1.6-2.9,3.2-4.3,4.8c-0.8,0.9-0.9,2.3,0,3.2C150.3,75.2,151.9,75.2,152.7,74.3L152.7,74.3z"/>
			<path class="st7" d="M159.8,62.8c0.7-1.5,1.5-2.9,2.5-4.2c0.7-1,0.2-2.6-0.8-3.1c-1.2-0.7-2.4-0.2-3.1,0.8
				c-1,1.3-1.8,2.7-2.5,4.2c-0.5,1.1-0.3,2.5,0.8,3.1C157.7,64.2,159.3,63.9,159.8,62.8L159.8,62.8z"/>
			<path class="st7" d="M163.8,71.2c2.6,2.8,5.4,5.5,8.4,8c2.3,1.9,5.5-1.4,3.2-3.2c-3-2.5-5.8-5.1-8.4-8
				C165,65.8,161.8,69.1,163.8,71.2L163.8,71.2z"/>
			<path class="st7" d="M154.7,77c1.5,2.4,3.4,4.4,5.7,6.1c1,0.8,2.6,0.2,3.1-0.8c0.7-1.2,0.2-2.4-0.8-3.1c-1.6-1.2-3-2.8-4-4.4
				C157,72.2,153.1,74.5,154.7,77L154.7,77z"/>
			<path class="st7" d="M168.3,55c1.9,1.4,3.9,2.9,5.8,4.3c1,0.7,2.6,0.2,3.1-0.8c0.7-1.2,0.2-2.4-0.8-3.1c-1.9-1.4-3.9-2.9-5.8-4.3
				c-1-0.7-2.6-0.2-3.1,0.8C166.8,53,167.3,54.2,168.3,55L168.3,55z"/>
			<path class="st7" d="M109,69.8c2.3,0.5,4.7,0.8,7,1.1c2.1,0.2,4.9-0.2,6.7,1c2.5,1.6,4.8-2.4,2.3-4c-1.9-1.2-4.1-1.3-6.3-1.4
				c-2.9-0.2-5.7-0.6-8.6-1.1C107.4,64.8,106.2,69.2,109,69.8L109,69.8z"/>
			<path class="st7" d="M116.3,65.1c3.6,1.1,7.3,1.8,11.1,2.3c2.9,0.4,2.9-4.2,0-4.6c-3.3-0.4-6.6-1.2-9.9-2.1
				C114.7,59.8,113.5,64.2,116.3,65.1L116.3,65.1z"/>
			<path class="st7" d="M118.7,59.9c5.8,1,11.4,3.2,17.3,3.9c2.9,0.4,2.9-4.2,0-4.6c-5.5-0.7-10.7-2.7-16.1-3.7
				C117,55,115.8,59.4,118.7,59.9L118.7,59.9z"/>
			<path class="st7" d="M77.3,46.9c0.9,3.5,1.1,7,0.6,10.6c-0.5,2.9,4,4.1,4.4,1.2c0.7-4.4,0.5-8.7-0.6-13
				C81,42.9,76.6,44.1,77.3,46.9L77.3,46.9z"/>
			<path class="st7" d="M72.8,54.7c-1.9,2.8-4.1,5.4-6.5,7.9c-2.1,2.1,1.2,5.4,3.2,3.2c2.6-2.7,5-5.7,7.2-8.8
				C78.4,54.6,74.5,52.3,72.8,54.7L72.8,54.7z"/>
			<path class="st7" d="M66.3,47c0.3,2.5,0.4,4.9,0.3,7.4c-0.1,2.9,4.5,2.9,4.6,0c0-2.5-0.1-5-0.3-7.4c-0.1-1.2-1-2.3-2.3-2.3
				C67.5,44.7,66.2,45.8,66.3,47L66.3,47z"/>
			<path class="st7" d="M61.4,50.7c-0.3,4.1-0.6,8.2-0.9,12.3c-0.2,2.9,4.4,2.9,4.6,0c0.3-4.1,0.6-8.2,0.9-12.3
				C66.2,47.8,61.7,47.8,61.4,50.7L61.4,50.7z"/>
			<path class="st7" d="M55.2,54.4c1.2,5.1-1.3,9.9-3.6,14.3c-1.4,2.6,2.6,4.9,4,2.3c2.9-5.6,5.5-11.4,4-17.8
				C58.9,50.3,54.5,51.5,55.2,54.4L55.2,54.4z"/>
			<path class="st7" d="M50.9,77.4c1.5,0.3,3,0.7,4.4,1.4c1.1,0.5,2.5,0.3,3.1-0.8c0.6-1,0.3-2.6-0.8-3.1c-1.8-0.8-3.6-1.4-5.5-1.8
				c-1.2-0.2-2.5,0.3-2.8,1.6C49,75.7,49.7,77.2,50.9,77.4L50.9,77.4z"/>
			<path class="st7" d="M49.2,81.1c0.5,2.1,1.3,4.1,2.4,6c1.5,2.5,5.5,0.2,4-2.3c-0.9-1.5-1.6-3.1-2-4.9
				C52.9,77,48.5,78.2,49.2,81.1L49.2,81.1z"/>
			<path class="st7" d="M60.6,78.8c1.6,1.9,3.2,3.9,4.8,5.8c0.8,1,2.4,0.8,3.2,0c0.9-0.9,0.8-2.3,0-3.2c-1.6-1.9-3.2-3.9-4.8-5.8
				c-0.8-1-2.4-0.8-3.2,0C59.7,76.5,59.8,77.9,60.6,78.8L60.6,78.8z"/>
			<path class="st7" d="M61.8,71.1c2.7,2.8,5.6,5.5,8.6,7.9c2.3,1.8,5.5-1.4,3.2-3.2c-3-2.5-5.9-5.1-8.6-7.9
				C63,65.7,59.7,68.9,61.8,71.1L61.8,71.1z"/>
			<path class="st7" d="M69.4,68.7c1.1,1,2.1,2.2,3,3.3c0.7,1,2,1.5,3.1,0.8c1-0.6,1.6-2.1,0.8-3.1c-1.1-1.5-2.3-2.9-3.7-4.2
				c-0.9-0.9-2.4-0.9-3.2,0C68.5,66.3,68.5,67.8,69.4,68.7L69.4,68.7z"/>
			<path class="st7" d="M75.4,65.8c1.2,1.4,2.4,3,3.4,4.6c1.5,2.5,5.5,0.2,4-2.3c-1.2-2-2.6-3.8-4.1-5.5c-0.8-0.9-2.4-0.8-3.2,0
				C74.5,63.5,74.6,64.9,75.4,65.8L75.4,65.8z"/>
			<path class="st7" d="M81.7,66.7c0.8,0.3,1.7,0.6,2.5,0.9c1.1,0.4,2.6-0.5,2.8-1.6c0.3-1.3-0.4-2.4-1.6-2.8
				c-0.8-0.3-1.7-0.6-2.5-0.9c-1.1-0.4-2.6,0.5-2.8,1.6C79.8,65.2,80.5,66.3,81.7,66.7L81.7,66.7z"/>
			<path class="st7" d="M83.6,79.6c5-1.9,10.1-3.6,15.2-5.2c2.8-0.8,1.6-5.2-1.2-4.4c-5.1,1.5-10.2,3.2-15.2,5.2
				C79.6,76.2,80.8,80.7,83.6,79.6L83.6,79.6z"/>
			<path class="st7" d="M72.2,93.2C76.5,95.4,81,97,85.7,98c2.9,0.6,4.1-3.8,1.2-4.4c-4.3-0.9-8.5-2.4-12.5-4.3
				C71.8,88,69.5,92,72.2,93.2L72.2,93.2z"/>
			<path class="st7" d="M90.9,83.8c5.4,5.1,8.9,11.8,14.5,16.6c2.2,1.9,5.5-1.3,3.2-3.2c-5.7-4.8-9.2-11.5-14.5-16.6
				C92,78.6,88.7,81.8,90.9,83.8L90.9,83.8z"/>
			<path class="st7" d="M96.5,81.2c1.1,0.8,2.3,1.5,3.5,2c1.1,0.5,2.5,0.4,3.1-0.8c0.5-1,0.3-2.6-0.8-3.1c-1.3-0.6-2.4-1.2-3.5-2
				c-1-0.7-2.6-0.2-3.1,0.8C95.1,79.3,95.5,80.5,96.5,81.2L96.5,81.2z"/>
			<path class="st7" d="M102.5,72.1c2.7,2.4,5.3,5,7.8,7.8c2,2.2,5.2-1,3.2-3.2c-2.4-2.7-5-5.3-7.8-7.8
				C103.5,66.9,100.2,70.2,102.5,72.1L102.5,72.1z"/>
			<path class="st7" d="M103.7,80.9c-0.1,2.4-0.6,4.7-1.4,7c-0.9,2.8,3.5,4,4.4,1.2c0.9-2.7,1.4-5.4,1.5-8.2
				C108.4,78,103.8,78,103.7,80.9L103.7,80.9z"/>
			<path class="st7" d="M108.5,85.3c-0.2,3-0.3,6.1-0.5,9.1c-0.2,2.9,4.4,2.9,4.6,0c0.2-3,0.3-6.1,0.5-9.1
				C113.3,82.4,108.7,82.4,108.5,85.3L108.5,85.3z"/>
			<path class="st7" d="M116.9,86.9c0.9,1.7,1.6,3.4,2.1,5.3c0.8,2.8,5.2,1.6,4.4-1.2c-0.6-2.2-1.5-4.4-2.6-6.4
				C119.4,82.1,115.5,84.4,116.9,86.9L116.9,86.9z"/>
			<path class="st7" d="M116.5,80.9c1.9,0.6,3.7,0.9,5.7,1.2c1.2,0.1,2.3-1.2,2.3-2.3c0-1.4-1.1-2.1-2.3-2.3c-1.5-0.2-3-0.5-4.4-1
				C114.9,75.6,113.7,80,116.5,80.9L116.5,80.9z"/>
			<path class="st7" d="M116.4,76.5c5.5,0,10.7,2,16.2,2.4c2.9,0.2,2.9-4.4,0-4.6c-5.5-0.3-10.7-2.4-16.2-2.4
				C113.5,71.9,113.5,76.5,116.4,76.5L116.4,76.5z"/>
			<path class="st7" d="M137.5,82.8c4.5,4,6.7,9.9,10.8,14.2c2,2.1,5.3-1.1,3.2-3.2c-4.1-4.4-6.3-10.2-10.8-14.2
				C138.5,77.7,135.3,80.9,137.5,82.8L137.5,82.8z"/>
			<path class="st7" d="M139.6,77.6c1.8,1.8,3.6,3.6,5.3,5.5c2.1,2.1,5.3-1.1,3.2-3.2c-1.8-1.8-3.6-3.6-5.3-5.5
				C140.8,72.3,137.6,75.5,139.6,77.6L139.6,77.6z"/>
			<path class="st7" d="M146.5,78.4c0.6,0.4,1.2,0.8,1.9,1.2c1,0.6,2.6,0.2,3.1-0.8c0.6-1.1,0.3-2.4-0.8-3.1
				c-0.6-0.4-1.2-0.8-1.9-1.2c-1-0.6-2.6-0.2-3.1,0.8C145.1,76.4,145.4,77.7,146.5,78.4L146.5,78.4z"/>
			<path class="st7" d="M126,87.2c2.3-0.6,4.6-1.1,6.9-1.7c2.9-0.7,1.6-5.1-1.2-4.4c-2.3,0.6-4.6,1.1-6.9,1.7
				C121.9,83.4,123.1,87.9,126,87.2L126,87.2z"/>
			<path class="st7" d="M129.9,91.1c3.8,3.3,7.4,6.7,10.9,10.4c2,2.1,5.3-1.1,3.2-3.2c-3.4-3.7-7.1-7.1-10.9-10.4
				C131,85.9,127.7,89.1,129.9,91.1L129.9,91.1z"/>
			<path class="st7" d="M126.6,96.7c3.7,4.3,7.5,8.6,11.4,12.8c2,2.2,5.2-1.1,3.2-3.2c-3.9-4.2-7.7-8.4-11.4-12.8
				C128,91.2,124.8,94.5,126.6,96.7L126.6,96.7z"/>
			<path class="st7" d="M126.5,105.5c0.4,2.2,0.1,4.4-0.7,6.5c-1,2.8,3.4,4,4.4,1.2c1-2.9,1.2-5.9,0.7-9
				C130.4,101.4,126,102.7,126.5,105.5L126.5,105.5z"/>
			<path class="st7" d="M120.9,97.7c0.2,4.2,0.1,8.3-0.1,12.5c-0.2,2.9,4.4,2.9,4.6,0c0.3-4.2,0.3-8.3,0.1-12.5
				C125.3,94.7,120.8,94.7,120.9,97.7L120.9,97.7z"/>
			<path class="st7" d="M108.6,107.9c4-3.3,8-6.7,11.9-10.2c2.2-1.9-1-5.2-3.2-3.2c-3.9,3.5-7.9,6.8-11.9,10.2
				C103.1,106.5,106.3,109.8,108.6,107.9L108.6,107.9z"/>
			<path class="st7" d="M113.9,107.6c0.4,4.2,0.7,8.3,0.9,12.5c0.1,2.9,4.7,3,4.6,0c-0.1-4.2-0.4-8.3-0.9-12.5
				C118.2,104.7,113.6,104.7,113.9,107.6L113.9,107.6z"/>
			<path class="st7" d="M131.6,109.5c0.3,4.3,0.5,8.7,0.8,13c0.2,2.9,4.8,2.9,4.6,0c-0.3-4.3-0.5-8.7-0.8-13
				C136,106.6,131.4,106.5,131.6,109.5L131.6,109.5z"/>
			<path class="st7" d="M121.6,131.6c2.5-3.4,4.2-7.3,5.2-11.4c0.7-2.9-3.7-4.1-4.4-1.2c-0.9,3.8-2.4,7.2-4.7,10.3
				C115.9,131.7,119.9,134,121.6,131.6L121.6,131.6z"/>
			<path class="st7" d="M127.9,136.1c1-2.7,1.9-5.4,2.7-8.1c0.8-2.8-3.6-4-4.4-1.2c-0.8,2.7-1.7,5.4-2.7,8.1
				C122.4,137.6,126.8,138.8,127.9,136.1L127.9,136.1z"/>
			<path class="st7" d="M137.9,116c0.7,4.3,1.4,8.6,2.1,12.8c0.5,2.9,4.9,1.7,4.4-1.2c-0.7-4.3-1.4-8.6-2.1-12.8
				C141.8,111.9,137.4,113.1,137.9,116L137.9,116z"/>
			<path class="st7" d="M144.5,109.6c1.3,4.4,2.4,8.9,3.3,13.5c0.6,2.9,5,1.7,4.4-1.2c-0.9-4.5-2-9-3.3-13.5
				C148.1,105.6,143.7,106.8,144.5,109.6L144.5,109.6z"/>
			<path class="st7" d="M153.2,109.7c2.5-5,2.2-10.7,4.7-15.7c1.3-2.6-2.6-4.9-4-2.3c-2.5,5-2.2,10.8-4.7,15.7
				C147.9,110.1,151.9,112.4,153.2,109.7L153.2,109.7z"/>
			<path class="st7" d="M150.6,84.6c2.6,2.3,5,4.8,7.1,7.6c0.7,1,2,1.5,3.1,0.8c1-0.6,1.6-2.1,0.8-3.1c-2.3-3.1-4.9-6-7.8-8.6
				C151.6,79.4,148.4,82.6,150.6,84.6L150.6,84.6z"/>
			<path class="st7" d="M156.7,101.3c1,3.6,1.9,7.2,2.9,10.8c0.8,2.8,5.2,1.6,4.4-1.2c-1-3.6-1.9-7.2-2.9-10.8
				C160.3,97.3,155.9,98.5,156.7,101.3L156.7,101.3z"/>
			<path class="st7" d="M155.2,120.3c2.4-0.7,4.8-1.3,7.3-2c2.8-0.8,1.6-5.2-1.2-4.4c-2.4,0.7-4.8,1.3-7.3,2
				C151.1,116.7,152.3,121.1,155.2,120.3L155.2,120.3z"/>
			<path class="st7" d="M164,99.9c0.5,6.3,0.9,12.5,1.4,18.8c0.2,2.9,4.8,2.9,4.6,0c-0.5-6.3-0.9-12.5-1.4-18.8
				C168.4,96.9,163.8,96.9,164,99.9L164,99.9z"/>
			<path class="st7" d="M167.9,96.4c2.5-2.8,4.7-5.9,6.5-9.3c1.4-2.6-2.6-4.9-4-2.3c-1.6,3-3.5,5.8-5.8,8.4
				C162.7,95.4,165.9,98.6,167.9,96.4L167.9,96.4z"/>
			<path class="st7" d="M165.9,59.6c0.7,2,1.5,4.1,2.2,6.1c0.4,1.2,1.6,1.9,2.8,1.6c1.1-0.3,2-1.6,1.6-2.8c-0.7-2-1.5-4.1-2.2-6.1
				c-0.4-1.2-1.6-1.9-2.8-1.6C166.4,57.1,165.5,58.4,165.9,59.6L165.9,59.6z"/>
			<path class="st7" d="M81.3,103.9c6-0.5,11.9-0.2,17.8,0.9c2.9,0.5,4.1-3.9,1.2-4.4c-6.3-1.2-12.6-1.5-19-1
				C78.4,99.5,78.3,104.1,81.3,103.9L81.3,103.9z"/>
			<path class="st7" d="M80.4,109.8c3.6-0.1,7.2,0,10.8,0.1c2.9,0.1,2.9-4.4,0-4.6c-3.6-0.2-7.2-0.2-10.8-0.1
				C77.5,105.2,77.5,109.8,80.4,109.8L80.4,109.8z"/>
			<path class="st7" d="M91.5,114.3c2.8,2.2,5.5,4.6,8.2,7c2.1,2,5.4-1.2,3.2-3.2c-2.6-2.5-5.3-4.8-8.2-7c-1-0.8-2.3-0.9-3.2,0
				C90.7,111.9,90.5,113.6,91.5,114.3L91.5,114.3z"/>
			<path class="st7" d="M77.8,120.3c4.3,0.7,8.5,1.7,12.7,2.9c2.8,0.8,4-3.6,1.2-4.4c-4.2-1.2-8.4-2.1-12.7-2.9
				C76.1,115.4,74.9,119.8,77.8,120.3L77.8,120.3z"/>
			<path class="st7" d="M58.9,97.6c3.5,3.1,7.2,6,11,8.6c2.5,1.6,4.7-2.3,2.3-4c-3.6-2.4-6.9-5-10.1-7.9
				C60,92.4,56.7,95.6,58.9,97.6L58.9,97.6z"/>
			<path class="st7" d="M73.8,113.5c4.3,0.5,8.5,1.4,12.6,2.7c2.8,0.9,4-3.5,1.2-4.4c-4.5-1.4-9.1-2.4-13.8-2.9
				C70.9,108.6,70.9,113.2,73.8,113.5L73.8,113.5z"/>
			<path class="st7" d="M91.4,95.7c1.7,1,3.4,2.1,4.9,3.4c1,0.8,2.3,0.9,3.2,0c0.8-0.8,1-2.5,0-3.2c-1.9-1.5-3.8-2.9-5.9-4.1
				C91.2,90.3,88.9,94.2,91.4,95.7L91.4,95.7z"/>
			<path class="st7" d="M105.3,125.7c1.8,2.5,3.6,5,5.6,7.4c0.8,1,2.4,0.8,3.2,0c0.9-0.9,0.8-2.3,0-3.2c-1.7-2.1-3.4-4.2-4.9-6.4
				C107.6,121,103.6,123.3,105.3,125.7L105.3,125.7z"/>
			<path class="st7" d="M78.2,131.6c3.7,1.3,7.4,2.6,11.1,3.8c2.8,0.9,4-3.5,1.2-4.4c-3.7-1.2-7.4-2.4-11.1-3.8
				C76.6,126.2,75.4,130.6,78.2,131.6L78.2,131.6z"/>
			<path class="st7" d="M49.1,105.5c1.8,2.1,3.6,4.1,5.5,6.1c2,2.1,5.3-1.1,3.2-3.2c-1.9-2-3.8-4-5.5-6.1c-0.8-0.9-2.4-0.8-3.2,0
				C48.2,103.2,48.3,104.6,49.1,105.5L49.1,105.5z"/>
			<path class="st7" d="M59.8,117c2.4,2.2,4.8,4.4,7.2,6.6c2.2,2,5.4-1.2,3.2-3.2c-2.4-2.2-4.8-4.4-7.2-6.6
				C60.8,111.8,57.6,115,59.8,117L59.8,117z"/>
			<path class="st7" d="M64.7,108.2c1.2,3,2.7,5.9,4.4,8.7c1.6,2.5,5.5,0.2,4-2.3c-1.5-2.4-2.9-4.9-4-7.6c-0.5-1.2-1.5-1.9-2.8-1.6
				C65.2,105.7,64.3,107.1,64.7,108.2L64.7,108.2z"/>
			<path class="st7" d="M47.4,91.4c0.9,1.9,1.8,3.8,2.7,5.7c0.5,1.1,2.1,1.4,3.1,0.8c1.1-0.7,1.3-2,0.8-3.1
				c-0.9-1.9-1.8-3.8-2.7-5.7c-0.5-1.1-2.1-1.4-3.1-0.8C47.1,88.9,46.9,90.3,47.4,91.4L47.4,91.4z"/>
			<path class="st7" d="M74.3,88.5c2.2-1.1,4.5-1.9,6.9-2.5c2.8-0.7,1.6-5.2-1.2-4.4c-2.8,0.7-5.4,1.7-8,2.9
				C69.4,85.8,71.7,89.8,74.3,88.5L74.3,88.5z"/>
			<path class="st7" d="M153,127.5c-0.6,1.9-1.3,3.7-2,5.6c-0.5,1.1,0.5,2.5,1.6,2.8c1.3,0.4,2.3-0.5,2.8-1.6c0.8-1.8,1.4-3.7,2-5.6
				C158.3,125.9,153.9,124.7,153,127.5L153,127.5z"/>
			<path class="st7" d="M133.7,129.1c0.9,2.4,1.8,4.8,2.8,7.2c0.4,1.2,1.5,1.9,2.8,1.6c1.1-0.3,2-1.7,1.6-2.8
				c-0.9-2.4-1.8-4.8-2.8-7.2c-0.4-1.2-1.5-1.9-2.8-1.6C134.2,126.5,133.3,127.9,133.7,129.1L133.7,129.1z"/>
			<path class="st7" d="M109.8,139.6c3.5,0.2,6.9,0.6,10.4,1.1c2.9,0.4,4.1-4,1.2-4.4c-3.8-0.6-7.7-1-11.6-1.3
				C106.9,134.9,106.9,139.4,109.8,139.6L109.8,139.6z"/>
			<path class="st7" d="M93.9,138.7c3.6,0.7,7.1,1.6,10.6,2.7c2.8,0.9,4-3.5,1.2-4.4c-3.5-1.1-7-2-10.6-2.7
				C92.2,133.7,91,138.1,93.9,138.7L93.9,138.7z"/>
			<path class="st7" d="M98.9,110.1c3.2,1.4,6.4,2.7,9.8,3.7c2.8,0.8,4-3.6,1.2-4.4c-3-0.9-5.9-1.9-8.7-3.2
				C98.5,104.9,96.2,108.8,98.9,110.1L98.9,110.1z"/>
			<path class="st7" d="M173.1,99.1c1.8-1,3.4-2.2,5.1-3.4c1-0.7,1.5-2,0.8-3.1c-0.6-1-2.1-1.6-3.1-0.8c-1.6,1.2-3.3,2.3-5.1,3.4
				C168.3,96.7,170.6,100.6,173.1,99.1L173.1,99.1z"/>
			<path class="st7" d="M178.2,105.6c0.7-0.5,1.5-1,2.2-1.5c1-0.7,1.5-2,0.8-3.1c-0.6-1-2.1-1.5-3.1-0.8c-0.7,0.5-1.5,1-2.2,1.5
				c-1,0.7-1.5,2-0.8,3.1C175.7,105.7,177.1,106.3,178.2,105.6L178.2,105.6z"/>
			<path class="st7" d="M171.6,109.6c0.9,2.3,1.8,4.6,2.7,6.9c0.4,1.2,1.5,1.9,2.8,1.6c1.1-0.3,2-1.7,1.6-2.8
				c-0.9-2.3-1.8-4.6-2.7-6.9c-0.4-1.2-1.5-1.9-2.8-1.6C172.1,107.1,171.2,108.4,171.6,109.6L171.6,109.6z"/>
			<path class="st7" d="M151,49.1c0.3-0.2,0.6-0.5,0.8-0.7c0.4-0.3,0.7-1.1,0.7-1.6c0-0.6-0.2-1.2-0.7-1.6c-0.4-0.4-1-0.7-1.6-0.7
				c-0.2,0-0.4,0.1-0.6,0.1c-0.4,0.1-0.7,0.3-1,0.6c-0.3,0.2-0.6,0.5-0.8,0.7c-0.4,0.3-0.7,1.1-0.7,1.6c0,0.6,0.2,1.2,0.7,1.6
				c0.4,0.4,1,0.7,1.6,0.7c0.2,0,0.4-0.1,0.6-0.1C150.3,49.6,150.7,49.4,151,49.1L151,49.1z"/>
			<path class="st7" d="M163.1,42.7c1.9,2.4,3.7,4.7,5.6,7.1c0.8,1,2.4,0.8,3.2,0c1-1,0.8-2.3,0-3.2c-1.9-2.4-3.7-4.7-5.6-7.1
				c-0.8-1-2.4-0.8-3.2,0C162.1,40.4,162.3,41.7,163.1,42.7L163.1,42.7z"/>
			<path class="st7" d="M142.3,18.4c0.3,2.2,0.6,4.4,1,6.6c0.2,1.2,1.7,1.9,2.8,1.6c1.3-0.4,1.8-1.6,1.6-2.8c-0.3-2.2-0.6-4.4-1-6.6
				c-0.2-1.2-1.7-1.9-2.8-1.6C142.6,15.9,142.2,17.2,142.3,18.4L142.3,18.4z"/>
			<path class="st7" d="M152.6,25.5c1.3,1.5,2.5,3,3.6,4.6c0.7,1,2,1.5,3.1,0.8c1-0.6,1.5-2.1,0.8-3.1c-1.3-1.9-2.8-3.8-4.3-5.5
				c-0.8-0.9-2.4-0.8-3.2,0C151.7,23.2,151.8,24.5,152.6,25.5L152.6,25.5z"/>
			<path class="st7" d="M164.5,37c1.1-0.2,1.9-0.3,3-0.4c1.2-0.1,2.3-1,2.3-2.3c-0.1-1.2-1-2.4-2.3-2.3c-1.4,0.1-2.8,0.3-4.2,0.6
				c-1.2,0.3-2,1.7-1.6,2.8C162.1,36.7,163.2,37.3,164.5,37L164.5,37z"/>
			<path class="st7" d="M126.1,17.8c2.2,1.1,4.5,2.3,6.7,3.4c2.6,1.3,4.9-2.6,2.3-4c-2.2-1.1-4.5-2.3-6.7-3.4
				C125.7,12.6,123.4,16.5,126.1,17.8L126.1,17.8z"/>
			<path class="st7" d="M75.9,29.9c0.5,3.4,1,6.8,1.5,10.1c0.4,2.9,4.8,1.7,4.4-1.2c-0.5-3.4-1-6.8-1.5-10.1
				C79.9,25.7,75.5,27,75.9,29.9L75.9,29.9z"/>
			<path class="st7" d="M65.2,43c0.7-0.1,1.3-0.1,2-0.2c0.6-0.1,1.2-0.2,1.6-0.7c0.4-0.4,0.7-1,0.7-1.6c-0.1-1.2-1-2.4-2.3-2.3
				c-0.7,0.1-1.3,0.1-2,0.2c-0.6,0.1-1.2,0.2-1.6,0.7c-0.4,0.4-0.7,1-0.7,1.6C62.9,41.9,63.9,43.1,65.2,43L65.2,43z"/>
			<path class="st7" d="M57.6,89.1c0.2,0.5,0.3,1.1,0.5,1.6c0.3,1.1,1.6,2,2.8,1.6c1.2-0.4,2-1.6,1.6-2.8c-0.2-0.5-0.3-1.1-0.5-1.6
				c-0.3-1.1-1.6-2-2.8-1.6C58,86.7,57.2,87.9,57.6,89.1L57.6,89.1z"/>
			<path class="st7" d="M48.9,117.9c2.7,1.9,5.5,3.6,8.4,5.1c2.6,1.3,5-2.7,2.3-4c-3-1.5-5.8-3.1-8.4-5.1
				C48.8,112.2,46.5,116.2,48.9,117.9L48.9,117.9z"/>
			<path class="st7" d="M183.9,114.7c1.4-0.8,2.7-1.5,4.1-2.3c1.1-0.6,1.4-2.1,0.8-3.1c-0.6-1.1-2-1.4-3.1-0.8
				c-1.4,0.8-2.7,1.5-4.1,2.3c-1.1,0.6-1.4,2.1-0.8,3.1C181.4,115,182.8,115.3,183.9,114.7L183.9,114.7z"/>
			<path class="st7" d="M168.2,124c-0.2,1.6-0.9,3.1-1,4.7c-0.1,1.2,1.1,2.3,2.3,2.3c1.3,0,2.2-1.1,2.3-2.3c0.2-1.6,0.9-3.1,1-4.7
				c0.1-1.2-1.1-2.3-2.3-2.3C169.1,121.8,168.3,122.8,168.2,124L168.2,124z"/>
			<path class="st7" d="M188.5,104.6c1.6-3.3,3-6.7,4.1-10.2c0.9-2.8-3.5-4-4.4-1.2c-1,3.1-2.2,6.2-3.7,9.1
				C183.2,104.9,187.2,107.2,188.5,104.6L188.5,104.6z"/>
			<path class="st7" d="M185.8,92.9c0.5-2.1,1.2-4.1,2.2-6c0.5-1.1,0.3-2.5-0.8-3.1c-1-0.6-2.6-0.3-3.1,0.8c-1.1,2.3-2,4.6-2.6,7.1
				C180.7,94.5,185.1,95.7,185.8,92.9L185.8,92.9z"/>
			<path class="st7" d="M164.9,83.8c0.6,0.3,1.2,0.6,1.8,0.8c0.6,0.3,1.1,0.4,1.8,0.2c0.5-0.1,1.1-0.6,1.4-1.1
				c0.5-1,0.3-2.6-0.8-3.1c-0.6-0.3-1.2-0.6-1.8-0.8c-0.6-0.3-1.1-0.4-1.8-0.2c-0.5,0.1-1.1,0.6-1.4,1.1
				C163.5,81.6,163.7,83.2,164.9,83.8L164.9,83.8z"/>
			<path class="st7" d="M131,71c0.4-0.6,0.8-1.3,1.2-1.9c0.6-1,0.3-2.6-0.8-3.1c-1.1-0.6-2.5-0.3-3.1,0.8c-0.4,0.6-0.8,1.3-1.2,1.9
				c-0.6,1-0.3,2.6,0.8,3.1C128.9,72.4,130.3,72.1,131,71L131,71z"/>
			<path class="st7" d="M191.5,79.1c-1.5-1.5-2.9-3-4.3-4.5c-0.8-0.9-2.4-0.8-3.2,0c-0.9,0.9-0.8,2.3,0,3.2c1.4,1.6,2.8,3.1,4.3,4.5
				C190.3,84.4,193.6,81.2,191.5,79.1L191.5,79.1z"/>
			<path class="st7" d="M186.2,70.7c0.7-1.4,1.3-2.7,2-4.1c0.5-1.1,0.3-2.5-0.8-3.1c-1-0.6-2.6-0.3-3.1,0.8c-0.7,1.4-1.3,2.7-2,4.1
				c-0.5,1.1-0.3,2.5,0.8,3.1C184,72.1,185.6,71.8,186.2,70.7L186.2,70.7z"/>
			<path class="st7" d="M180.2,64.3c1-2.3,2.1-4.6,3.2-6.8c1.3-2.6-2.6-4.9-4-2.3c-1.1,2.2-2.2,4.5-3.2,6.8
				c-0.5,1.1-0.3,2.5,0.8,3.1C178,65.6,179.7,65.4,180.2,64.3L180.2,64.3z"/>
			<path class="st7" d="M173.2,46.6c0.5,0.9,1.1,1.9,1.6,2.8c0.6,1,2.1,1.5,3.1,0.8c1-0.7,1.5-2,0.8-3.1c-0.5-0.9-1.1-1.9-1.6-2.8
				c-0.6-1-2.1-1.5-3.1-0.8C173,44.2,172.6,45.5,173.2,46.6L173.2,46.6z"/>
			<path class="st7" d="M112,19.7c0.7-0.9,1.5-1.8,2.2-2.7c0.8-0.9,1-2.3,0-3.2c-0.8-0.8-2.4-1-3.2,0c-0.7,0.9-1.5,1.8-2.2,2.7
				c-0.8,0.9-1,2.3,0,3.2C109.6,20.5,111.2,20.7,112,19.7L112,19.7z"/>
			<path class="st7" d="M88.7,24.6c2.4-0.2,4.8-0.3,7.2-0.5c2.9-0.2,2.9-4.8,0-4.6c-2.4,0.2-4.8,0.3-7.2,0.5
				C85.8,20.3,85.8,24.8,88.7,24.6L88.7,24.6z"/>
			<path class="st7" d="M79.5,25.4c0.2,1.1,0.6,2.2,1.1,3.3c0.6,1.1,2.1,1.5,3.1,0.8c1.1-0.7,1.4-2,0.8-3.1c0-0.1-0.4-0.8-0.2-0.3
				c-0.1-0.2-0.1-0.4-0.2-0.5c-0.1-0.4-0.2-0.9-0.3-1.3c-0.1-0.5-0.6-1.1-1.1-1.4c-0.5-0.3-1.2-0.4-1.8-0.2
				C79.8,23,79.4,24.1,79.5,25.4L79.5,25.4z"/>
			<path class="st7" d="M46.8,63.8c0,1.6,0,3.2,0,4.7c0,2.9,4.6,2.9,4.6,0c0-1.6,0-3.2,0-4.7C51.4,60.8,46.8,60.8,46.8,63.8
				L46.8,63.8z"/>
			<path class="st7" d="M75,74.8c0,0.9,0,1.9,0,2.8c0,1.2,1.1,2.3,2.3,2.3c1.2-0.1,2.3-1,2.3-2.3c0-0.9,0-1.9,0-2.8
				c0-1.2-1.1-2.3-2.3-2.3C76.1,72.6,75,73.6,75,74.8L75,74.8z"/>
			<path class="st7" d="M71.7,100.2c0.6,1,1.2,2,1.8,3c0.6,1,2.1,1.5,3.1,0.8c1-0.7,1.5-2,0.8-3.1c-0.6-1-1.2-2-1.8-3
				c-0.6-1-2.1-1.5-3.1-0.8C71.5,97.7,71.1,99.1,71.7,100.2L71.7,100.2z"/>
			<path class="st7" d="M63.4,127.8c0.3,0.9,0.7,1.9,1,2.8c0.4,1.1,1.6,2,2.8,1.6c1.1-0.4,2-1.6,1.6-2.8c-0.3-0.9-0.7-1.9-1-2.8
				c-0.4-1.1-1.6-2-2.8-1.6C63.9,125.4,63,126.6,63.4,127.8L63.4,127.8z"/>
			<path class="st7" d="M94.2,125.3c1.5,1.6,2.8,3.4,3.9,5.3c1.4,2.6,5.4,0.3,4-2.3c-1.3-2.3-2.8-4.4-4.6-6.2
				C95.4,119.9,92.1,123.1,94.2,125.3L94.2,125.3z"/>
			<path class="st7" d="M145,36.1c-0.3-1.4-0.4-2.8-0.1-4.1c0.2-1.2-0.3-2.5-1.6-2.8c-1.1-0.3-2.6,0.4-2.8,1.6
				c-0.4,2.2-0.4,4.4,0.1,6.6C141.3,40.2,145.7,39,145,36.1L145,36.1z"/>
			<path class="st7" d="M60.1,129.2c0.5-0.5,1-1,1.5-1.4c0.9-0.8,0.9-2.4,0-3.2c-0.9-0.9-2.3-0.9-3.2,0c-0.5,0.5-1,0.9-1.5,1.4
				c-0.4,0.4-0.7,1-0.7,1.6c0,0.6,0.2,1.2,0.7,1.6C57.7,130,59.2,130.1,60.1,129.2L60.1,129.2z"/>
			<path class="st7" d="M68.5,137.9c0.9-0.3,1.8-0.6,2.7-0.9c1.1-0.4,2-1.6,1.6-2.8c-0.4-1.1-1.6-2-2.8-1.6
				c-0.9,0.3-1.8,0.6-2.7,0.9c-1.1,0.4-2,1.6-1.6,2.8C66.1,137.4,67.3,138.3,68.5,137.9L68.5,137.9z"/>
			<path class="st7" d="M82.5,141.1c1.2-0.3,2.3-0.7,3.5-1c1.1-0.3,2-1.6,1.6-2.8c-0.4-1.2-1.6-2-2.8-1.6c-1.2,0.3-2.3,0.7-3.5,1
				c-1.1,0.3-2,1.6-1.6,2.8C80.1,140.7,81.3,141.5,82.5,141.1L82.5,141.1z"/>
			<path class="st7" d="M74.9,129.1c0.6-1.3,1.1-2.5,1.4-3.9c0.3-1.2-0.4-2.5-1.6-2.8c-1.2-0.3-2.5,0.4-2.8,1.6
				c-0.3,0.9-0.7,2.2-1,2.8c-0.5,1.1-0.4,2.5,0.8,3.1C72.8,130.5,74.4,130.3,74.9,129.1L74.9,129.1z"/>
			<path class="st7" d="M128.3,141.6c1.3,1.1,2.6,2.1,4,2.9c1,0.6,2.6,0.3,3.1-0.8c0.6-1.1,0.3-2.5-0.8-3.1
				c-1.2-0.7-2.1-1.4-3.1-2.2c-0.9-0.8-2.4-1-3.2,0C127.6,139.2,127.4,140.7,128.3,141.6L128.3,141.6z"/>
			<path class="st7" d="M164.6,130c-0.3-0.7-0.5-1.8-0.6-2.6c-0.1-1.2-1-2.3-2.3-2.3c-1.2,0.1-2.4,1-2.3,2.3
				c0.1,1.8,0.5,3.3,1.2,4.9c0.5,1.1,2.2,1.4,3.1,0.8C164.9,132.5,165.1,131.2,164.6,130L164.6,130z"/>
			<path class="st7" d="M180.7,122.9c-0.1-0.3-0.2-0.6-0.3-0.9c-0.2-0.6-0.5-1.1-1.1-1.4c-0.5-0.3-1.2-0.4-1.8-0.2
				c-0.6,0.2-1.1,0.5-1.4,1.1c-0.3,0.5-0.4,1.2-0.2,1.8c0.1,0.3,0.2,0.6,0.3,0.9c0.2,0.6,0.5,1.1,1.1,1.4c0.5,0.3,1.2,0.4,1.8,0.2
				c0.6-0.2,1.1-0.5,1.4-1.1C180.7,124.1,180.8,123.5,180.7,122.9L180.7,122.9z"/>
		</g>
		<g>
			<path class="st8" d="M77.2,30.4c0.1,1.7,0.3,3.4,0.5,5.1c0.1,0.7,1.2,0.4,1.1-0.3c-0.2-1.6-0.4-3.2-0.5-4.8
				C78.3,29.7,77.2,29.7,77.2,30.4L77.2,30.4z"/>
			<path class="st8" d="M86.1,32.3c-0.2,2.4-0.2,4.8-0.2,7.1c0,0.7,1.1,0.7,1.1,0c0-2.4,0.1-4.8,0.2-7.1
				C87.3,31.6,86.2,31.6,86.1,32.3L86.1,32.3z"/>
			<path class="st8" d="M90.3,22.3c0.7-0.2,1.4-0.3,2.1-0.5c0.7-0.2,0.4-1.3-0.3-1.1c-0.7,0.2-1.4,0.3-2.1,0.5
				C89.3,21.4,89.6,22.5,90.3,22.3L90.3,22.3z"/>
			<path class="st8" d="M91.5,28.6c-0.1,2.2-0.2,4.4-0.4,6.7c0,0.7,1.1,0.7,1.1,0c0.1-2.2,0.2-4.4,0.4-6.7
				C92.7,27.8,91.5,27.8,91.5,28.6L91.5,28.6z"/>
			<path class="st8" d="M78.5,48c0.3,1.8,0.6,3.5,0.9,5.3c0.1,0.7,1.2,0.4,1.1-0.3c-0.3-1.8-0.6-3.5-0.9-5.3
				C79.5,47,78.4,47.3,78.5,48L78.5,48z"/>
			<path class="st8" d="M67.3,47.7c0.1,1.4,0.1,2.9,0.1,4.3c0,0.7,1.1,0.7,1.1,0c0-1.4,0-2.9-0.1-4.3C68.4,47,67.2,47,67.3,47.7
				L67.3,47.7z"/>
			<path class="st8" d="M64.9,40.8c0.4,0,0.9,0,1.3,0c0.7,0,0.7-1.1,0-1.1c-0.4,0-0.9,0-1.3,0C64.2,39.7,64.2,40.8,64.9,40.8
				L64.9,40.8z"/>
			<path class="st8" d="M62.4,51.6c-0.3,2.3-0.5,4.5-0.8,6.8c-0.1,0.7,1.1,0.7,1.1,0c0.3-2.3,0.5-4.5,0.8-6.8
				C63.6,50.9,62.5,50.9,62.4,51.6L62.4,51.6z"/>
			<path class="st8" d="M54.9,69.1c1-2.1,1.7-4.2,2.2-6.5c0.2-0.7-0.9-1-1.1-0.3c-0.5,2.1-1.1,4.2-2,6.2
				C53.6,69.2,54.6,69.7,54.9,69.1L54.9,69.1z"/>
			<path class="st8" d="M49.6,68.1c0-0.9,0-1.7,0-2.6c0-0.7-1.1-0.7-1.1,0c0,0.9,0,1.7,0,2.6C48.4,68.8,49.6,68.8,49.6,68.1
				L49.6,68.1z"/>
			<path class="st8" d="M51.5,74.9c1.4,0.3,2.7,0.8,4,1.5c0.7,0.3,1.2-0.7,0.6-1c-1.4-0.7-2.8-1.2-4.3-1.6
				C51.1,73.6,50.8,74.7,51.5,74.9L51.5,74.9z"/>
			<path class="st8" d="M68.8,63.7c1-1.1,2.1-2.1,3.3-3c0.6-0.5-0.2-1.3-0.8-0.8c-1.2,0.9-2.2,2-3.3,3
				C67.5,63.4,68.3,64.2,68.8,63.7L68.8,63.7z"/>
			<path class="st8" d="M70.7,67.2c0.6,0.6,1.2,1.2,1.7,1.9c0.4,0.6,1.4,0,1-0.6c-0.6-0.8-1.2-1.5-1.9-2.1
				C71,65.9,70.2,66.7,70.7,67.2L70.7,67.2z"/>
			<path class="st8" d="M77.3,64.2c0.7,1,1.5,2,2.2,2.9c0.4,0.6,1.4,0,1-0.6c-0.7-1-1.5-2-2.2-2.9C77.8,63,76.8,63.6,77.3,64.2
				L77.3,64.2z"/>
			<path class="st8" d="M82.2,65.3c0.3,0.2,0.6,0.4,0.8,0.7c0.2,0.3,0.5,0.4,0.8,0.2c0.3-0.1,0.4-0.5,0.2-0.8
				c-0.3-0.5-0.7-0.8-1.2-1.1c-0.3-0.1-0.6-0.1-0.8,0.2C81.8,64.7,81.9,65.1,82.2,65.3L82.2,65.3z"/>
			<path class="st8" d="M85.7,53c1.1,1.1,2.3,2,3.6,2.8c0.6,0.4,1.2-0.6,0.6-1c-1.2-0.7-2.4-1.6-3.4-2.6C86,51.7,85.2,52.5,85.7,53
				L85.7,53z"/>
			<path class="st8" d="M96.2,47.4c-0.3,2.5-0.8,5.1-1.3,7.6c-0.2,0.7,0.9,1,1.1,0.3c0.6-2.6,1-5.2,1.4-7.9
				C97.4,46.7,96.3,46.7,96.2,47.4L96.2,47.4z"/>
			<path class="st8" d="M99.3,57.4c1.6-1.1,3.3-2.2,5-3.3c0.6-0.4,0-1.4-0.6-1c-1.7,1.1-3.3,2.2-5,3.3
				C98.1,56.9,98.7,57.8,99.3,57.4L99.3,57.4z"/>
			<path class="st8" d="M105.9,46.4c1.6,0.1,3.3,0,4.9-0.2c0.7-0.1,0.7-1.2,0-1.1c-1.6,0.2-3.3,0.3-4.9,0.2
				C105.1,45.3,105.1,46.4,105.9,46.4L105.9,46.4z"/>
			<path class="st8" d="M109.6,41.3c0.9,0.1,1.8,0,2.7-0.3c0.7-0.2,0.4-1.3-0.3-1.1c-0.8,0.3-1.6,0.3-2.4,0.2
				C108.9,40.1,108.9,41.2,109.6,41.3L109.6,41.3z"/>
			<path class="st8" d="M104.7,32.9c1,0.5,2,1,3,1.5c0.7,0.3,1.2-0.7,0.6-1c-1-0.5-2-1-3-1.5C104.7,31.6,104.1,32.6,104.7,32.9
				L104.7,32.9z"/>
			<path class="st8" d="M111.6,29.1c0.4-1.4,0.9-2.8,1.6-4.2c0.3-0.7-0.7-1.2-1-0.6c-0.6,1.5-1.2,2.9-1.7,4.5
				C110.2,29.5,111.4,29.8,111.6,29.1L111.6,29.1z"/>
			<path class="st8" d="M103.7,24.6c0.9,0.8,1.8,1.5,2.8,2.1c0.6,0.4,1.2-0.6,0.6-1c-0.9-0.6-1.7-1.3-2.5-2
				C104,23.3,103.2,24.1,103.7,24.6L103.7,24.6z"/>
			<path class="st8" d="M110.5,17.5c0.3-0.5,0.6-1.1,0.8-1.6c0.3-0.7-0.7-1.2-1-0.6c-0.3,0.5-0.6,1.1-0.8,1.6
				C109.1,17.6,110.1,18.2,110.5,17.5L110.5,17.5z"/>
			<path class="st8" d="M120.7,25.8c0.9-1.2,1.8-2.4,2.8-3.5c0.5-0.6-0.3-1.4-0.8-0.8c-1.1,1.2-2.1,2.5-3,3.8
				C119.3,25.8,120.3,26.4,120.7,25.8L120.7,25.8z"/>
			<path class="st8" d="M124.1,29.2c-0.4,1.6-0.8,3.3-1.1,4.9c-0.2,0.7,0.9,1,1.1,0.3c0.4-1.6,0.8-3.3,1.1-4.9
				C125.3,28.8,124.2,28.5,124.1,29.2L124.1,29.2z"/>
			<path class="st8" d="M128.4,27c0.5,1.1,0.9,2.1,1.4,3.2c0.3,0.7,1.3,0.1,1-0.6c-0.5-1.1-0.9-2.1-1.4-3.2
				C129.1,25.7,128.1,26.3,128.4,27L128.4,27z"/>
			<path class="st8" d="M127.7,17.6c1,0.8,2.1,1.6,3.3,2.2c0.6,0.4,1.2-0.6,0.6-1c-1.1-0.6-2.1-1.2-3-2
				C127.9,16.3,127.1,17.2,127.7,17.6L127.7,17.6z"/>
			<path class="st8" d="M143.2,19.1c0.1,1.4,0.2,2.8,0.3,4.2c0.1,0.7,1.2,0.7,1.1,0c-0.1-1.4-0.2-2.8-0.3-4.2
				C144.3,18.3,143.1,18.3,143.2,19.1L143.2,19.1z"/>
			<path class="st8" d="M141,31.7c-0.2,1.7,0,3.3,0.4,5c0.2,0.7,1.3,0.4,1.1-0.3c-0.4-1.5-0.6-3.1-0.4-4.6
				C142.2,31,141.1,31,141,31.7L141,31.7z"/>
			<path class="st8" d="M134.5,38.8c0.7,1,1.4,2,2.1,3c0.4,0.6,1.4,0,1-0.6c-0.7-1-1.4-2-2.1-3C135.1,37.6,134.1,38.2,134.5,38.8
				L134.5,38.8z"/>
			<path class="st8" d="M153.6,24.5c1.2,1.6,2.5,3.2,3.9,4.7c0.5,0.5,1.3-0.3,0.8-0.8c-1.3-1.4-2.6-2.9-3.7-4.5
				C154.2,23.3,153.2,23.9,153.6,24.5L153.6,24.5z"/>
			<path class="st8" d="M164.7,34.5c0.7-0.1,1.3-0.2,2-0.3c0.7-0.1,0.4-1.2-0.3-1.1c-0.7,0.1-1.3,0.2-2,0.3
				C163.7,33.5,164,34.6,164.7,34.5L164.7,34.5z"/>
			<path class="st8" d="M165.4,42.1c0.9,1.2,1.8,2.3,2.7,3.5c0.4,0.6,1.4,0,1-0.6c-0.9-1.2-1.8-2.3-2.7-3.5
				C165.9,40.9,164.9,41.5,165.4,42.1L165.4,42.1z"/>
			<path class="st8" d="M174.6,45.6c0.4,0.7,0.7,1.5,1.1,2.2c0.3,0.7,1.3,0.1,1-0.6c-0.4-0.7-0.7-1.5-1.1-2.2
				C175.3,44.3,174.3,44.9,174.6,45.6L174.6,45.6z"/>
			<path class="st8" d="M156.1,42.2c0.4,1.2,0.7,2.4,1.1,3.6c0.2,0.7,1.3,0.4,1.1-0.3c-0.4-1.2-0.7-2.4-1.1-3.6
				C157,41.1,155.9,41.4,156.1,42.2L156.1,42.2z"/>
			<path class="st8" d="M147.1,41c1,0.1,1.9,0.2,2.9,0.3c0.7,0.1,0.7-1.1,0-1.1c-1-0.1-1.9-0.2-2.9-0.3
				C146.4,39.8,146.4,41,147.1,41L147.1,41z"/>
			<path class="st8" d="M143.6,46.2c-0.5,2-1.2,4-2,5.8c-0.3,0.7,0.7,1.2,1,0.6c0.9-2,1.6-4,2.2-6.1
				C144.8,45.8,143.7,45.5,143.6,46.2L143.6,46.2z"/>
			<path class="st8" d="M132.9,51.1c1.2-0.2,2.4-0.4,3.6-0.5c0.7-0.1,0.4-1.2-0.3-1.1c-1.2,0.2-2.4,0.4-3.6,0.5
				C131.9,50.1,132.2,51.2,132.9,51.1L132.9,51.1z"/>
			<path class="st8" d="M121.1,52c0.6,0.3,1.2,0.6,1.9,0.8c0.3,0.1,0.6,0.1,0.8-0.2c0.1-0.2,0.1-0.7-0.2-0.8
				c-0.6-0.3-1.2-0.6-1.9-0.8c-0.3-0.1-0.6-0.1-0.8,0.2C120.8,51.4,120.8,51.9,121.1,52L121.1,52z"/>
			<path class="st8" d="M111.2,58c1.2-0.4,2.3-0.8,3.5-1.1c0.7-0.2,0.4-1.3-0.3-1.1c-1.2,0.4-2.3,0.8-3.5,1.1
				C110.2,57.1,110.5,58.2,111.2,58L111.2,58z"/>
			<path class="st8" d="M95.6,66c3-0.2,6-0.6,8.9-1.1c0.7-0.1,0.4-1.2-0.3-1.1c-2.9,0.4-5.7,0.8-8.6,1C94.8,64.9,94.8,66,95.6,66
				L95.6,66z"/>
			<path class="st8" d="M85.1,77.7c2.4-1,4.9-1.9,7.5-2.7c0.7-0.2,0.4-1.3-0.3-1.1c-2.6,0.8-5.2,1.7-7.7,2.8
				C83.8,77,84.4,78,85.1,77.7L85.1,77.7z"/>
			<path class="st8" d="M75.9,75.5c0,0.6,0.1,1.2,0.3,1.8c0.2,0.7,1.3,0.4,1.1-0.3c-0.1-0.5-0.2-1-0.2-1.5
				C77.1,74.7,75.9,74.7,75.9,75.5L75.9,75.5z"/>
			<path class="st8" d="M74.4,87.5c1.7-0.7,3.5-1.4,5.2-2.1c0.7-0.3,0.4-1.4-0.3-1.1c-1.7,0.7-3.5,1.4-5.2,2.1
				C73.4,86.6,73.7,87.7,74.4,87.5L74.4,87.5z"/>
			<path class="st8" d="M62.3,77.5c1.1,1.1,2.2,2.1,3.3,3.1c0.5,0.5,1.3-0.3,0.8-0.8c-1.1-1-2.2-2.1-3.3-3.1
				C62.6,76.1,61.8,77,62.3,77.5L62.3,77.5z"/>
			<path class="st8" d="M65,71.6c1.3,0.9,2.5,2,3.6,3.1c0.5,0.5,1.3-0.3,0.8-0.8c-1.2-1.2-2.5-2.2-3.9-3.2
				C65,70.2,64.4,71.2,65,71.6L65,71.6z"/>
			<path class="st8" d="M51.1,80.8c0.2,1.2,0.6,2.3,1.4,3.3c0.4,0.6,1.4,0,1-0.6c-0.7-0.9-1.1-1.9-1.2-3C52.1,79.7,51,80,51.1,80.8
				L51.1,80.8z"/>
			<path class="st8" d="M58.9,88.8c0.2,0.5,0.3,1,0.3,1.6c0,0.7,1.2,0.7,1.1,0c0-0.7-0.2-1.3-0.4-1.9C59.7,87.8,58.6,88.1,58.9,88.8
				L58.9,88.8z"/>
			<path class="st8" d="M48.9,91c0.5,1.7,1.4,3.3,2.5,4.8c0.4,0.6,1.4,0,1-0.6c-1-1.4-1.8-2.9-2.3-4.5C49.7,90,48.6,90.2,48.9,91
				L48.9,91z"/>
			<path class="st8" d="M50.1,104.6c1.1,1.3,2,2.7,2.8,4.2c0.3,0.6,1.3,0.1,1-0.6c-0.8-1.6-1.9-3.1-3-4.5
				C50.5,103.3,49.7,104.1,50.1,104.6L50.1,104.6z"/>
			<path class="st8" d="M50.4,117.5c1.5,1.1,3,2.1,4.6,3.2c0.6,0.4,1.2-0.6,0.6-1c-1.5-1.1-3-2.1-4.6-3.2
				C50.3,116.1,49.8,117,50.4,117.5L50.4,117.5z"/>
			<path class="st8" d="M61.3,116.5c1.5,1.6,3.1,3.1,4.7,4.5c0.6,0.5,1.4-0.3,0.8-0.8c-1.6-1.4-3.2-2.9-4.7-4.5
				C61.6,115.2,60.8,116,61.3,116.5L61.3,116.5z"/>
			<path class="st8" d="M67,109c0.9,2,1.8,4.1,2.5,6.2c0.2,0.7,1.3,0.4,1.1-0.3c-0.7-2.2-1.6-4.4-2.6-6.5
				C67.7,107.7,66.7,108.3,67,109L67,109z"/>
			<path class="st8" d="M60.2,97.4c1.6,1.4,3.2,2.7,4.9,4c0.6,0.4,1.2-0.6,0.6-1c-1.6-1.2-3.2-2.5-4.7-3.8
				C60.4,96.1,59.6,96.9,60.2,97.4L60.2,97.4z"/>
			<path class="st8" d="M82.2,102.7c2.6-0.1,5.1-0.2,7.7-0.3c0.7,0,0.7-1.2,0-1.1c-2.6,0.1-5.1,0.2-7.7,0.3
				C81.5,101.6,81.5,102.7,82.2,102.7L82.2,102.7z"/>
			<path class="st8" d="M81.1,108c1.3,0.1,2.6,0.2,3.9,0.1c0.7,0,0.7-1.2,0-1.1c-1.3,0-2.6,0-3.9-0.1
				C80.3,106.7,80.3,107.9,81.1,108L81.1,108z"/>
			<path class="st8" d="M74.8,93c2.4,1,4.8,1.8,7.3,2.4c0.7,0.2,1-0.9,0.3-1.1c-2.4-0.6-4.7-1.3-7-2.3C74.7,91.8,74.1,92.7,74.8,93
				L74.8,93z"/>
			<path class="st8" d="M92.7,95.8c0.9,0.7,1.8,1.3,2.7,2c0.6,0.4,1.2-0.6,0.6-1c-0.9-0.7-1.8-1.3-2.7-2
				C92.7,94.4,92.1,95.4,92.7,95.8L92.7,95.8z"/>
			<path class="st8" d="M97.5,88.9c1.8,2.8,3.7,5.5,5.7,8.1c0.5,0.6,1.3-0.2,0.8-0.8c-2-2.5-3.8-5.1-5.5-7.8
				C98.1,87.7,97.1,88.2,97.5,88.9L97.5,88.9z"/>
			<path class="st8" d="M104.3,84.2c0,1.4,0,2.8,0,4.2c0,0.7,1.1,0.7,1.1,0c0-1.4,0-2.8,0-4.2C105.5,83.5,104.3,83.5,104.3,84.2
				L104.3,84.2z"/>
			<path class="st8" d="M97.3,81c0.8,0.5,1.7,1,2.6,1.3c0.7,0.3,1-0.8,0.3-1.1c-0.8-0.3-1.6-0.7-2.3-1.2
				C97.2,79.6,96.7,80.6,97.3,81L97.3,81z"/>
			<path class="st8" d="M109.6,89.1c-0.1,1.7,0,3.4,0.1,5.1c0,0.7,1.2,0.7,1.1,0c-0.1-1.7-0.1-3.4-0.1-5.1
				C110.8,88.4,109.6,88.4,109.6,89.1L109.6,89.1z"/>
			<path class="st8" d="M107.8,75.6c0.9,0.9,1.8,1.7,2.7,2.6c0.5,0.5,1.3-0.3,0.8-0.8c-0.9-0.9-1.8-1.7-2.7-2.6
				C108.1,74.3,107.3,75.1,107.8,75.6L107.8,75.6z"/>
			<path class="st8" d="M114.5,69.5c1.7,0.2,3.4,0.3,5.1,0.5c0.7,0.1,0.7-1.1,0-1.1c-1.7-0.2-3.4-0.3-5.1-0.5
				C113.8,68.3,113.8,69.4,114.5,69.5L114.5,69.5z"/>
			<path class="st8" d="M121.5,65.6c1.6,0.2,3.1,0.4,4.7,0.6c0.7,0.1,0.7-1.1,0-1.1c-1.6-0.2-3.1-0.4-4.7-0.6
				C120.8,64.4,120.8,65.5,121.5,65.6L121.5,65.6z"/>
			<path class="st8" d="M120.2,59.6c3.2,0.6,6.4,1.3,9.6,2.1c0.7,0.2,1-0.9,0.3-1.1c-3.2-0.8-6.4-1.5-9.6-2.1
				C119.8,58.3,119.5,59.4,120.2,59.6L120.2,59.6z"/>
			<path class="st8" d="M129.2,67.3c-0.8,0.7-1.2,1.7-1.3,2.8c-0.1,0.7,1.1,0.7,1.1,0c0.1-0.8,0.4-1.4,1-1.9
				C130.5,67.6,129.7,66.8,129.2,67.3L129.2,67.3z"/>
			<path class="st8" d="M118.4,75.6c3.3,0.4,6.5,0.6,9.8,0.8c0.7,0,0.7-1.1,0-1.1c-3.3-0.2-6.6-0.4-9.8-0.8
				C117.6,74.3,117.6,75.5,118.4,75.6L118.4,75.6z"/>
			<path class="st8" d="M116.6,79.6c1.2,0.2,2.3,0.5,3.5,0.7c0.7,0.1,1-1,0.3-1.1c-1.2-0.2-2.3-0.5-3.5-0.7
				C116.2,78.4,115.9,79.5,116.6,79.6L116.6,79.6z"/>
			<path class="st8" d="M126.3,86c1.2-0.1,2.5-0.4,3.7-0.7c0.7-0.2,0.4-1.3-0.3-1.1c-1.1,0.3-2.2,0.6-3.4,0.7
				C125.6,84.9,125.6,86.1,126.3,86L126.3,86z"/>
			<path class="st8" d="M118.9,88.7c0.3,0.9,0.6,1.8,1,2.6c0.3,0.7,1.3,0.1,1-0.6c-0.4-0.8-0.6-1.5-0.9-2.3
				C119.8,87.7,118.7,88,118.9,88.7L118.9,88.7z"/>
			<path class="st8" d="M78.4,113.1c2.4,0.2,4.7,0.5,7.1,0.9c0.7,0.1,1-1,0.3-1.1c-2.5-0.4-4.9-0.7-7.4-0.9
				C77.6,111.9,77.6,113,78.4,113.1L78.4,113.1z"/>
			<path class="st8" d="M64.3,128.3c0.2,0.8,0.4,1.6,0.8,2.4c0.3,0.7,1.3,0.1,1-0.6c-0.3-0.7-0.5-1.4-0.7-2.1
				C65.3,127.2,64.2,127.5,64.3,128.3L64.3,128.3z"/>
			<path class="st8" d="M79.4,131.2c2,0.4,4,0.9,6,1.3c0.7,0.2,1-0.9,0.3-1.1c-2-0.4-4-0.9-6-1.3C79,130,78.7,131.1,79.4,131.2
				L79.4,131.2z"/>
			<path class="st8" d="M95.5,137.7c1.6,0.3,3.2,0.5,4.8,0.6c0.7,0,0.7-1.1,0-1.1c-1.5-0.1-3-0.3-4.5-0.6
				C95.1,136.4,94.8,137.5,95.5,137.7L95.5,137.7z"/>
			<path class="st8" d="M95.8,125.1c0.6,1.3,1.3,2.4,2.2,3.5c0.5,0.6,1.3-0.2,0.8-0.8c-0.8-1-1.5-2.1-2-3.3
				C96.4,123.9,95.5,124.4,95.8,125.1L95.8,125.1z"/>
			<path class="st8" d="M80.4,119.4c2.3,0.4,4.7,0.7,7,1c0.7,0.1,0.7-1.1,0-1.1c-2.3-0.2-4.5-0.6-6.7-0.9
				C80,118.2,79.7,119.3,80.4,119.4L80.4,119.4z"/>
			<path class="st8" d="M92.9,113.3c1.4,0.7,2.8,1.5,4,2.5c0.6,0.5,1.4-0.3,0.8-0.8c-1.3-1.1-2.7-1.9-4.2-2.7
				C92.8,112,92.3,113,92.9,113.3L92.9,113.3z"/>
			<path class="st8" d="M100.2,108.8c1.5,0.2,3,0.5,4.4,0.9c0.7,0.2,1-0.9,0.3-1.1c-1.5-0.5-3.1-0.8-4.7-1
				C99.5,107.6,99.5,108.7,100.2,108.8L100.2,108.8z"/>
			<path class="st8" d="M112.6,101.5c2.1-1.5,4.3-3,6.4-4.5c0.6-0.4,0-1.4-0.6-1c-2.1,1.5-4.3,3-6.4,4.5
				C111.4,100.9,112,101.9,112.6,101.5L112.6,101.5z"/>
			<path class="st8" d="M114.8,110.1c0.1,2.7,0.2,5.3,0.3,8c0,0.7,1.2,0.7,1.1,0c-0.2-2.6-0.3-5.3-0.3-8
				C115.9,109.3,114.8,109.3,114.8,110.1L114.8,110.1z"/>
			<path class="st8" d="M107.8,124.6c0.6,0.9,1.3,1.9,1.9,2.8c0.4,0.6,1.4,0,1-0.6c-0.6-0.9-1.3-1.9-1.9-2.8
				C108.4,123.5,107.4,124,107.8,124.6L107.8,124.6z"/>
			<path class="st8" d="M111.2,137.6c1.3,0,2.6,0.1,3.9,0.1c0.7,0,0.7-1.1,0-1.1c-1.3,0-2.6-0.1-3.9-0.1
				C110.5,136.4,110.5,137.5,111.2,137.6L111.2,137.6z"/>
			<path class="st8" d="M123.9,119.3c-0.9,1.9-1.7,3.8-2.3,5.9c-0.2,0.7,0.9,1,1.1,0.3c0.6-1.9,1.3-3.8,2.2-5.6
				C125.2,119.2,124.2,118.6,123.9,119.3L123.9,119.3z"/>
			<path class="st8" d="M127.3,127.1c-0.3,1.5-0.7,2.9-1.3,4.3c-0.3,0.7,0.7,1.2,1,0.6c0.7-1.5,1.2-3,1.4-4.6
				C128.5,126.7,127.4,126.4,127.3,127.1L127.3,127.1z"/>
			<path class="st8" d="M135.3,130.5c0.7,1.1,1.1,2.2,1.3,3.5c0.1,0.7,1.2,0.7,1.1,0c-0.2-1.5-0.6-2.8-1.4-4
				C135.9,129.3,134.9,129.9,135.3,130.5L135.3,130.5z"/>
			<path class="st8" d="M139.6,116.1c0.4,1.8,0.5,3.6,0.4,5.5c0,0.7,1.1,0.7,1.1,0c0.1-1.9,0-3.9-0.5-5.8
				C140.5,115.1,139.4,115.4,139.6,116.1L139.6,116.1z"/>
			<path class="st8" d="M132.8,113.4c0.2,1.8,0.3,3.6,0.1,5.5c-0.1,0.7,1.1,0.7,1.1,0c0.2-1.9,0.1-3.8-0.1-5.8
				C133.8,112.4,132.7,112.7,132.8,113.4L132.8,113.4z"/>
			<path class="st8" d="M127.4,105.6c0.2,0.8,0.3,1.6,0.2,2.4c0,0.7,1.1,0.7,1.1,0c0-0.9-0.1-1.8-0.3-2.7
				C128.3,104.5,127.2,104.8,127.4,105.6L127.4,105.6z"/>
			<path class="st8" d="M122.2,99.1c0,1.4,0,2.8-0.1,4.2c-0.1,0.7,1.1,0.7,1.1,0c0.1-1.4,0.1-2.8,0.1-4.2
				C123.4,98.4,122.2,98.3,122.2,99.1L122.2,99.1z"/>
			<path class="st8" d="M129.1,97.7c1.4,1.2,2.5,2.7,3.4,4.3c0.3,0.7,1.3,0.1,1-0.6c-0.9-1.7-2.1-3.3-3.6-4.6
				C129.3,96.4,128.5,97.2,129.1,97.7L129.1,97.7z"/>
			<path class="st8" d="M131.7,90.1c1.9,1.8,4,3.4,6.1,4.9c0.6,0.4,1.2-0.6,0.6-1c-2-1.4-4-3-5.9-4.7
				C131.9,88.8,131.1,89.6,131.7,90.1L131.7,90.1z"/>
			<path class="st8" d="M140.2,82.3c0.9,1.3,1.9,2.7,2.8,4c0.4,0.6,1.4,0,1-0.6c-0.9-1.3-1.9-2.7-2.8-4
				C140.8,81.1,139.8,81.7,140.2,82.3L140.2,82.3z"/>
			<path class="st8" d="M141,77.2c0.9,0.8,1.7,1.6,2.3,2.7c0.4,0.6,1.4,0.1,1-0.6c-0.7-1.1-1.5-2.1-2.5-2.9
				C141.2,75.9,140.4,76.7,141,77.2L141,77.2z"/>
			<path class="st8" d="M152.2,84.5c1.9,1.5,3.6,3.2,5,5.1c0.5,0.6,1.3-0.2,0.8-0.8c-1.5-1.9-3.2-3.6-5-5.1
				C152.5,83.2,151.7,84.1,152.2,84.5L152.2,84.5z"/>
			<path class="st8" d="M154.8,93c-0.6,2.5-1.2,5.1-1.6,7.6c-0.1,0.7,1,1,1.1,0.3c0.4-2.6,1-5.1,1.6-7.6
				C156.1,92.6,155,92.3,154.8,93L154.8,93z"/>
			<path class="st8" d="M158.8,101.7c0.3,1.8,0.6,3.5,0.9,5.3c0.1,0.7,1.2,0.4,1.1-0.3c-0.3-1.8-0.6-3.5-0.9-5.3
				C159.8,100.7,158.7,101,158.8,101.7L158.8,101.7z"/>
			<path class="st8" d="M156.5,118.1c1.6-0.2,3.1-0.4,4.7-0.6c0.7-0.1,0.7-1.2,0-1.1c-1.6,0.2-3.1,0.4-4.7,0.6
				C155.8,117.1,155.8,118.2,156.5,118.1L156.5,118.1z"/>
			<path class="st8" d="M146.9,111.8c0.6,2.2,1.2,4.4,1.8,6.7c0.2,0.7,1.3,0.4,1.1-0.3c-0.6-2.2-1.2-4.4-1.8-6.7
				C147.8,110.7,146.7,111,146.9,111.8L146.9,111.8z"/>
			<path class="st8" d="M154.7,130c-0.2,0.5-0.3,1.1-0.5,1.6c-0.2,0.7,0.9,1,1.1,0.3c0.2-0.5,0.3-1.1,0.5-1.6
				C156,129.6,154.9,129.3,154.7,130L154.7,130z"/>
			<path class="st8" d="M168.9,124.5c0,1.2,0,2.3,0,3.5c0,0.7,1.1,0.7,1.1,0c0-1.2,0-2.3,0-3.5C170.1,123.7,168.9,123.7,168.9,124.5
				L168.9,124.5z"/>
			<path class="st8" d="M165.3,101.3c0.5,3.2,1,6.4,1.3,9.5c0.1,0.7,1.2,0.7,1.1,0c-0.4-3.3-0.8-6.6-1.4-9.9
				C166.3,100.3,165.2,100.6,165.3,101.3L165.3,101.3z"/>
			<path class="st8" d="M173.1,110.8c0.5,1.5,1.1,2.9,1.8,4.3c0.3,0.7,1.3,0.1,1-0.6c-0.6-1.3-1.2-2.7-1.7-4.1
				C174,109.8,172.9,110.1,173.1,110.8L173.1,110.8z"/>
			<path class="st8" d="M183.5,112.6c0.8-0.5,1.5-1,2.3-1.5c0.6-0.4,0-1.4-0.6-1c-0.8,0.5-1.5,1-2.3,1.5
				C182.3,112,182.8,113,183.5,112.6L183.5,112.6z"/>
			<path class="st8" d="M189.5,94.7c-0.4,2.4-1,4.7-1.9,6.9c-0.3,0.7,0.8,1,1.1,0.3c0.9-2.2,1.5-4.5,1.9-6.9
				C190.8,94.3,189.7,94,189.5,94.7L189.5,94.7z"/>
			<path class="st8" d="M185.5,85.9c-0.7,1.5-1.2,3-1.4,4.6c-0.1,0.7,1,1,1.1,0.3c0.3-1.5,0.7-2.9,1.3-4.3
				C186.8,85.8,185.8,85.3,185.5,85.9L185.5,85.9z"/>
			<path class="st8" d="M170.9,87.9c-0.9,1.6-1.8,3.2-2.6,4.9c-0.3,0.7,0.7,1.2,1,0.6c0.8-1.7,1.6-3.3,2.6-4.9
				C172.2,87.9,171.2,87.3,170.9,87.9L170.9,87.9z"/>
			<path class="st8" d="M174,97c0.9-0.5,1.7-1.1,2.6-1.6c0.6-0.4,0-1.4-0.6-1c-0.9,0.5-1.7,1.1-2.6,1.6
				C172.8,96.4,173.4,97.4,174,97L174,97z"/>
			<path class="st8" d="M156.4,77.3c0.7,0.8,1.3,1.6,2,2.5c0.5,0.6,1.3-0.2,0.8-0.8c-0.7-0.8-1.3-1.6-2-2.5
				C156.8,75.9,156,76.7,156.4,77.3L156.4,77.3z"/>
			<path class="st8" d="M142.2,64c2.1-1.2,4.2-2.4,6.2-3.7c0.6-0.4,0-1.4-0.6-1c-2,1.3-4.1,2.5-6.2,3.7
				C141,63.4,141.5,64.4,142.2,64L142.2,64z"/>
			<path class="st8" d="M151.5,52.6c2-0.3,4.1-0.8,6.1-1.3c0.7-0.2,0.4-1.3-0.3-1.1c-2,0.5-4,0.9-6.1,1.3
				C150.5,51.6,150.8,52.7,151.5,52.6L151.5,52.6z"/>
			<path class="st8" d="M170.4,54.3c1.4,0.8,2.8,1.7,4.1,2.6c0.6,0.4,1.2-0.6,0.6-1c-1.3-0.9-2.7-1.8-4.1-2.6
				C170.3,52.9,169.7,53.9,170.4,54.3L170.4,54.3z"/>
			<path class="st8" d="M179.4,57.5c-0.8,1.4-1.4,3-1.8,4.6c-0.2,0.7,0.9,1,1.1,0.3c0.4-1.5,0.9-3,1.7-4.3
				C180.7,57.4,179.8,56.9,179.4,57.5L179.4,57.5z"/>
			<path class="st8" d="M168,61.5c0.3,1.1,0.8,2.1,1.3,3.2c0.3,0.7,1.3,0.1,1-0.6c-0.5-0.9-0.8-1.9-1.2-2.9
				C168.9,60.5,167.7,60.8,168,61.5L168,61.5z"/>
			<path class="st8" d="M158.1,58.6c-0.4,0.8-0.6,1.7-0.8,2.6c-0.1,0.7,1,1,1.1,0.3c0.1-0.8,0.3-1.6,0.6-2.3
				C159.4,58.5,158.4,57.9,158.1,58.6L158.1,58.6z"/>
			<path class="st8" d="M152.9,71.5c0.5-0.5,0.9-1,1.3-1.5c0.4-0.6-0.6-1.2-1-0.6c-0.3,0.5-0.7,0.9-1.1,1.3
				C151.6,71.2,152.4,72,152.9,71.5L152.9,71.5z"/>
			<path class="st8" d="M143.9,69.3c1.8-0.9,3.6-1.8,5.5-2.7c0.7-0.3,0.1-1.3-0.6-1c-1.9,0.8-3.7,1.7-5.5,2.7
				C142.7,68.7,143.3,69.6,143.9,69.3L143.9,69.3z"/>
			<path class="st8" d="M166.3,70.8c1.4,1.6,3,3,4.8,4.2c0.6,0.4,1.2-0.6,0.6-1c-1.7-1.2-3.2-2.5-4.6-4
				C166.6,69.5,165.8,70.3,166.3,70.8L166.3,70.8z"/>
			<path class="st8" d="M184.7,65.7c-0.5,1.1-0.9,2.2-1.1,3.4c-0.1,0.7,1,1,1.1,0.3c0.2-1.1,0.6-2.1,1-3.1
				C186,65.6,185,65,184.7,65.7L184.7,65.7z"/>
			<path class="st8" d="M185.6,76.9c1,1.1,2,2.2,3.1,3.2c0.5,0.5,1.3-0.3,0.8-0.8c-1-1.1-2-2.2-3.1-3.2
				C185.9,75.6,185.1,76.4,185.6,76.9L185.6,76.9z"/>
			<path class="st8" d="M165.1,82.8c0.7,0.2,1.3,0.5,2,0.7c0.7,0.2,1-0.9,0.3-1.1c-0.7-0.2-1.3-0.5-2-0.7
				C164.7,81.4,164.4,82.5,165.1,82.8L165.1,82.8z"/>
			<path class="st8" d="M129.5,141.2c0.9,0.5,1.8,0.9,2.8,1.3c0.7,0.3,1-0.9,0.3-1.1c-0.9-0.3-1.7-0.7-2.5-1.2
				C129.4,139.8,128.8,140.8,129.5,141.2L129.5,141.2z"/>
			<path class="st8" d="M160.4,127.8c0.2,0.9,0.3,1.7,0.5,2.6c0.1,0.7,1.2,0.4,1.1-0.3c-0.2-0.9-0.3-1.7-0.5-2.6
				C161.3,126.7,160.2,127,160.4,127.8L160.4,127.8z"/>
			<path class="st8" d="M176.8,122.2c0,0.7,0.1,1.4,0.3,2.1c0.2,0.7,1.3,0.4,1.1-0.3c-0.2-0.6-0.3-1.2-0.3-1.8
				C178,121.5,176.8,121.5,176.8,122.2L176.8,122.2z"/>
			<path class="st8" d="M81.1,139.1c1.4-0.1,2.7-0.4,4-0.9c0.7-0.3,0.4-1.4-0.3-1.1c-1.2,0.5-2.4,0.8-3.7,0.9
				C80.4,138,80.4,139.2,81.1,139.1L81.1,139.1z"/>
			<path class="st8" d="M67.3,135.4c1.2-0.4,2.4-0.8,3.5-1.4c0.7-0.3,0.1-1.3-0.6-1c-1.1,0.5-2.1,1-3.3,1.3
				C66.3,134.5,66.6,135.6,67.3,135.4L67.3,135.4z"/>
			<path class="st8" d="M72.6,127.4c0.3-0.9,0.6-1.7,1-2.5c0.3-0.7-0.7-1.2-1-0.6c-0.4,0.9-0.8,1.8-1.1,2.8
				C71.3,127.8,72.4,128.1,72.6,127.4L72.6,127.4z"/>
			<path class="st8" d="M59.5,127.5c0.4-0.3,0.8-0.5,1.1-0.8c0.3-0.2,0.4-0.5,0.2-0.8c-0.1-0.3-0.5-0.4-0.8-0.2
				c-0.4,0.3-0.8,0.5-1.1,0.8c-0.3,0.2-0.4,0.5-0.2,0.8C58.9,127.5,59.3,127.6,59.5,127.5L59.5,127.5z"/>
		</g>
	</g>
</g>
</svg>
