<?xml version="1.0" encoding="utf-8"?>
<!-- Generator: Adobe Illustrator 19.0.0, SVG Export Plug-In . SVG Version: 6.00 Build 0)  -->
<svg version="1.1" id="Layer_1" xmlns="http://www.w3.org/2000/svg" xmlns:xlink="http://www.w3.org/1999/xlink" x="0px" y="0px"
	 viewBox="0 0 227 92" style="enable-background:new 0 0 227 92;" xml:space="preserve">
<style type="text/css">
	.st0{fill:#FFFFFF;}
	.st1{fill:#BFD9C3;}
	.st2{fill-rule:evenodd;clip-rule:evenodd;fill:#FFFFFF;}
</style>
<path class="st0" d="M195.5,34h-52.1c-4.9-11-16.1-18.4-29.2-18.4S89.8,23,84.9,34H33.5C26.9,34,20,37.9,20,44.5v6
	C20,57.1,26.9,64,33.5,64h55c5.8,7,15.1,12.4,25.6,12.4S134,71,139.8,64h55.7c6.6,0,10.5-6.9,10.5-13.5v-6
	C206,37.9,202.1,34,195.5,34z"/>
<g>
	<circle class="st1" cx="114" cy="46" r="23.4"/>
	<g>
		<g id="WA_Logo_10_">
			<g id="XMLID_39_">
				<path id="XMLID_40_" class="st2" d="M125.2,35.1c-2.8-2.8-6.5-4.3-10.5-4.3c-8.2,0-14.8,6.6-14.8,14.8c0,2.6,0.7,5.2,2,7.4
					l-2.1,7.7l7.9-2.2c2.2,1.2,4.6,1.6,7.1,1.6h0c8.2,0,14.8-6.5,14.8-14.6C129.6,41.4,128,37.9,125.2,35.1z M114.8,58L114.8,58
					c-2.2,0-4.4-0.7-6.3-1.8l-0.5-0.3l-4.7,1.2l1.2-4.6l-0.3-0.5c-1.2-2-1.9-4.2-1.9-6.6c0-6.8,5.5-12.3,12.3-12.3
					c3.3,0,6.4,1.3,8.7,3.6c2.3,2.3,3.6,5.5,3.6,8.8C127.1,52.4,121.5,58,114.8,58z M121.5,48.6c-0.4-0.2-2.2-1.1-2.5-1.2
					c-0.3-0.1-0.6-0.2-0.8,0.2c-0.2,0.4-1,1.2-1.2,1.5c-0.2,0.2-0.4,0.3-0.8,0.1c-0.4-0.2-1.6-0.6-3-1.8c-1.1-1-1.8-2.2-2.1-2.6
					c-0.2-0.4,0-0.6,0.2-0.8c0.2-0.2,0.4-0.4,0.6-0.6c0.2-0.2,0.2-0.4,0.4-0.6c0.1-0.2,0.1-0.5,0-0.6c-0.1-0.2-0.8-2-1.1-2.7
					c-0.3-0.7-0.6-0.6-0.8-0.6c-0.2,0-0.5,0-0.7,0c-0.2,0-0.6,0.1-1,0.5c-0.3,0.4-1.3,1.3-1.3,3.1s1.3,3.6,1.5,3.8
					c0.2,0.2,2.6,4,6.3,5.6c0.9,0.4,1.6,0.6,2.1,0.8c0.9,0.3,1.7,0.2,2.3,0.1c0.7-0.1,2.2-0.9,2.5-1.8c0.3-0.9,0.3-1.6,0.2-1.8
					C122.1,48.9,121.9,48.8,121.5,48.6z"/>
			</g>
		</g>
	</g>
</g>
</svg>
