<?xml version="1.0" encoding="utf-8"?>
<!-- Generator: Adobe Illustrator 19.0.0, SVG Export Plug-In . SVG Version: 6.00 Build 0)  -->
<svg version="1.1" id="Layer_1" xmlns="http://www.w3.org/2000/svg" xmlns:xlink="http://www.w3.org/1999/xlink" x="0px" y="0px"
	 viewBox="0 0 50 87" style="enable-background:new 0 0 50 87;" xml:space="preserve">
<style type="text/css">
	.st0{fill:none;stroke:#EBA09C;stroke-miterlimit:10;}
</style>
<g id="XMLID_41_">
	<path id="XMLID_48_" class="st0" d="M28.1,12.5c0,7.6-6.2,7.6-6.2,15.2c0,7.6,6.2,7.6,6.2,15.2c0,7.6-6.2,7.6-6.2,15.2
		c0,7.6,6.2,7.6,6.2,15.2c0,7.6-6.2,7.6-6.2,15.2c0,7.6,6.2,7.6,6.2,15.2c0,7.6-6.2,7.6-6.2,15.3c0,7.6,6.2,7.6,6.2,15.2
		c0,7.6-6.2,7.6-6.2,15.2c0,7.6,6.2,7.6,6.2,15.2c0,7.6-6.2,7.6-6.2,15.3c0,7.6,6.2,7.6,6.2,15.2c0,7.6-6.2,7.6-6.2,15.3
		c0,7.6,6.2,7.6,6.2,15.3c0,7.6-6.2,7.6-6.2,15.3c0,7.6,6.2,7.6,6.2,15.3"/>
</g>
</svg>
